<svg xmlns="http://www.w3.org/2000/svg" xmlns:xlink="http://www.w3.org/1999/xlink" width="1366" zoomAndPan="magnify" viewBox="0 0 1024.5 576" height="768" preserveAspectRatio="xMidYMid meet" version="1.2"><defs/><g id="9ddd05f417"><g style="fill:#000000;fill-opacity:1;"><g transform="translate(85.79907, 372.591352)"><path style="stroke:none" d="M 173.777344 -134.203125 C 175.476562 -134.769531 177.195312 -135.054688 178.925781 -135.054688 C 181.363281 -135.054688 183.367188 -134.265625 184.941406 -132.691406 C 186.519531 -131.113281 187.304688 -129.109375 187.304688 -126.675781 C 187.304688 -123.210938 185.710938 -120.683594 182.523438 -119.089844 C 180.761719 -118.207031 178.507812 -117.765625 175.761719 -117.765625 C 163.894531 -117.765625 154.253906 -122.425781 146.839844 -131.746094 C 139.773438 -140.628906 136.242188 -151.957031 136.242188 -165.730469 C 136.242188 -179.804688 140.183594 -194.167969 148.074219 -208.816406 C 155.769531 -223.109375 165.65625 -236.109375 177.730469 -247.820312 C 189.78125 -259.507812 203.03125 -269.097656 217.472656 -276.59375 C 232.277344 -284.277344 246.875 -288.117188 261.265625 -288.117188 C 275.832031 -288.117188 287.347656 -283.269531 295.808594 -273.566406 C 304.054688 -264.117188 308.175781 -251.21875 308.175781 -234.875 C 308.175781 -218.183594 303.785156 -199.589844 295 -179.097656 C 286.332031 -158.871094 274.078125 -138.859375 258.242188 -119.0625 C 223.929688 -75.621094 187.460938 -53.902344 148.84375 -53.902344 C 125.136719 -53.902344 106.152344 -62 91.886719 -78.195312 C 77.824219 -94.15625 70.792969 -115.066406 70.792969 -140.925781 C 70.792969 -169.488281 78.722656 -197.539062 94.589844 -225.074219 C 110.304688 -252.347656 132.734375 -277.324219 161.882812 -299.992188 C 173.738281 -308.972656 186.109375 -317.222656 198.992188 -324.738281 C 211.910156 -332.273438 224.925781 -338.734375 238.035156 -344.125 C 251.203125 -349.535156 264.207031 -353.6875 277.042969 -356.582031 C 289.988281 -359.496094 301.96875 -360.957031 312.992188 -360.957031 C 341.082031 -360.957031 362.859375 -353.414062 378.328125 -338.328125 C 393.839844 -323.199219 401.597656 -302.085938 401.597656 -274.988281 C 401.597656 -263.988281 400.582031 -253.78125 398.554688 -244.375 C 396.492188 -234.8125 392.0625 -223.785156 385.265625 -211.296875 C 378.632812 -199.105469 368.992188 -184.195312 356.351562 -166.566406 C 343.828125 -149.105469 327.171875 -126.628906 306.378906 -99.140625 C 297.273438 -86.882812 289.828125 -76.722656 284.039062 -68.65625 C 278.398438 -60.792969 274.0625 -53.996094 271.027344 -48.265625 C 268.082031 -42.699219 266.050781 -37.855469 264.941406 -33.734375 C 263.855469 -29.691406 263.3125 -25.660156 263.3125 -21.640625 C 263.3125 -14.84375 265.296875 -9.324219 269.273438 -5.074219 C 273.136719 -0.945312 278.210938 1.121094 284.488281 1.121094 C 296.160156 1.121094 310.246094 -4.820312 326.746094 -16.699219 C 343.953125 -29.085938 364.007812 -48.382812 386.914062 -74.585938 C 410.003906 -101 436.09375 -134.535156 465.179688 -175.183594 C 494.332031 -215.925781 527.179688 -264.410156 563.722656 -320.628906 L 565.804688 -323.832031 L 569.601562 -323.449219 C 573.074219 -323.101562 575.929688 -322.84375 578.167969 -322.671875 C 580.296875 -322.507812 582.335938 -322.425781 584.285156 -322.425781 C 590.601562 -322.425781 598.503906 -323.273438 607.992188 -324.96875 L 623.378906 -327.714844 L 614.152344 -315.097656 C 555.886719 -235.421875 511.597656 -168.683594 481.28125 -114.886719 C 451.382812 -61.832031 436.433594 -24.238281 436.433594 -2.109375 C 436.433594 7.769531 439.601562 15.882812 445.945312 22.222656 C 452.285156 28.5625 460.574219 31.734375 470.804688 31.734375 C 478.886719 31.734375 488.089844 28.910156 498.410156 23.265625 C 509.035156 17.457031 518.328125 10.074219 526.292969 1.113281 L 526.414062 0.976562 L 526.542969 0.847656 C 529.527344 -2.136719 532.238281 -3.628906 534.671875 -3.628906 C 537.289062 -3.628906 539.355469 -2.617188 540.871094 -0.59375 C 541.972656 0.871094 542.523438 2.652344 542.523438 4.75 C 542.523438 6.988281 541.277344 9.574219 538.789062 12.503906 C 537.140625 14.441406 534.738281 16.894531 531.578125 19.871094 L 531.5 19.945312 L 531.421875 20.011719 C 509.828125 39 489.625 48.492188 470.804688 48.492188 C 452.332031 48.492188 437.101562 41.421875 425.117188 27.273438 C 413.394531 13.4375 407.535156 -3.921875 407.535156 -24.808594 C 407.535156 -42.136719 411.988281 -62.164062 420.898438 -84.890625 C 429.667969 -107.265625 442.609375 -131.820312 459.722656 -158.554688 L 465 -155.175781 L 469.984375 -151.378906 L 461.539062 -140.292969 L 456.554688 -144.09375 L 461.644531 -140.433594 L 449.503906 -123.542969 C 433.546875 -101.554688 417.9375 -81.867188 402.679688 -64.480469 C 387.347656 -47.007812 372.613281 -32.277344 358.476562 -20.289062 C 344.234375 -8.210938 330.929688 1.105469 318.5625 7.652344 C 305.683594 14.46875 293.972656 17.878906 283.433594 17.878906 C 269.175781 17.878906 257.636719 12.652344 248.820312 2.191406 C 240.269531 -7.945312 235.996094 -21.167969 235.996094 -37.472656 C 235.996094 -45.730469 236.9375 -53.625 238.824219 -61.164062 C 240.703125 -68.691406 244.226562 -77.339844 249.390625 -87.113281 C 254.449219 -96.691406 261.550781 -107.84375 270.691406 -120.566406 C 279.695312 -133.101562 291.425781 -148.894531 305.886719 -167.9375 C 320.96875 -187.929688 333.0625 -204.40625 342.171875 -217.367188 C 351.183594 -230.195312 358.1875 -241.167969 363.175781 -250.289062 C 367.984375 -259.078125 371.117188 -266.871094 372.574219 -273.664062 C 374.066406 -280.621094 374.8125 -288.273438 374.8125 -296.628906 C 374.8125 -311.148438 369.617188 -322.53125 359.234375 -330.777344 C 348.414062 -339.371094 333.175781 -343.667969 313.519531 -343.667969 C 296.628906 -343.667969 279.632812 -340.707031 262.527344 -334.777344 C 245.210938 -328.777344 228.402344 -320.628906 212.09375 -310.332031 C 195.777344 -300.023438 180.566406 -287.820312 166.46875 -273.722656 C 152.328125 -259.582031 139.914062 -244.585938 129.234375 -228.734375 C 118.625 -212.992188 110.332031 -196.582031 104.351562 -179.496094 C 98.429688 -162.574219 95.46875 -145.84375 95.46875 -129.3125 C 95.46875 -111.597656 100.367188 -97.445312 110.164062 -86.859375 C 119.828125 -76.410156 132.722656 -71.1875 148.84375 -71.1875 C 181.332031 -71.1875 212.609375 -89.765625 242.671875 -126.921875 C 257.808594 -145.5 269.660156 -164.472656 278.230469 -183.839844 C 286.667969 -202.910156 290.890625 -219.75 290.890625 -234.347656 C 290.890625 -246.234375 288.277344 -255.382812 283.058594 -261.796875 C 278.15625 -267.820312 271.242188 -270.832031 262.320312 -270.832031 C 251.894531 -270.832031 240.761719 -267.183594 228.925781 -259.890625 C 216.613281 -252.296875 205.292969 -242.664062 194.972656 -230.988281 C 184.621094 -219.28125 176.054688 -206.386719 169.265625 -192.304688 C 162.644531 -178.5625 159.332031 -165.480469 159.332031 -153.066406 C 159.332031 -147.566406 160.855469 -143.027344 163.90625 -139.449219 C 166.703125 -136.167969 169.949219 -134.527344 173.648438 -134.527344 L 175.761719 -134.527344 L 175.761719 -128.257812 Z M 176.777344 -121.988281 L 173.648438 -121.988281 C 166.089844 -121.988281 159.660156 -125.097656 154.363281 -131.320312 C 149.320312 -137.238281 146.796875 -144.488281 146.796875 -153.066406 C 146.796875 -167.390625 150.523438 -182.285156 157.976562 -197.746094 C 165.261719 -212.871094 174.464844 -226.71875 185.578125 -239.289062 C 196.722656 -251.894531 208.980469 -262.316406 222.347656 -270.558594 C 236.203125 -279.097656 249.523438 -283.367188 262.320312 -283.367188 C 275.214844 -283.367188 285.371094 -278.816406 292.78125 -269.707031 C 299.875 -260.992188 303.425781 -249.203125 303.425781 -234.347656 C 303.425781 -217.980469 298.847656 -199.453125 289.695312 -178.765625 C 280.667969 -158.371094 268.242188 -138.460938 252.414062 -119.039062 C 219.84375 -78.78125 185.320312 -58.652344 148.84375 -58.652344 C 129.070312 -58.652344 113.109375 -65.21875 100.960938 -78.34375 C 88.941406 -91.335938 82.933594 -108.324219 82.933594 -129.3125 C 82.933594 -147.265625 86.128906 -165.375 92.519531 -183.636719 C 98.855469 -201.738281 107.628906 -219.105469 118.835938 -235.738281 C 129.972656 -252.257812 142.894531 -267.875 157.605469 -282.585938 C 172.363281 -297.34375 188.292969 -310.125 205.402344 -320.929688 C 222.523438 -331.742188 240.195312 -340.308594 258.421875 -346.625 C 276.855469 -353.011719 295.222656 -356.207031 313.519531 -356.207031 C 336.089844 -356.207031 353.925781 -351.003906 367.03125 -340.59375 C 380.574219 -329.839844 387.347656 -315.183594 387.347656 -296.628906 C 387.347656 -287.390625 386.507812 -278.859375 384.832031 -271.035156 C 383.121094 -263.050781 379.566406 -254.128906 374.171875 -244.269531 C 368.960938 -234.742188 361.710938 -223.371094 352.425781 -210.160156 C 343.238281 -197.082031 331.050781 -180.480469 315.871094 -160.359375 C 301.480469 -141.402344 289.8125 -125.699219 280.871094 -113.253906 C 272.066406 -100.996094 265.265625 -90.328125 260.472656 -81.257812 C 255.785156 -72.378906 252.621094 -64.667969 250.984375 -58.121094 C 249.351562 -51.582031 248.53125 -44.703125 248.53125 -37.472656 C 248.53125 -24.222656 251.824219 -13.691406 258.40625 -5.886719 C 264.71875 1.601562 273.0625 5.34375 283.433594 5.34375 C 291.894531 5.34375 301.652344 2.417969 312.699219 -3.429688 C 324.261719 -9.550781 336.816406 -18.355469 350.371094 -29.851562 C 364.035156 -41.441406 378.328125 -55.738281 393.257812 -72.75 C 408.261719 -89.847656 423.617188 -109.214844 439.324219 -130.859375 L 451.515625 -147.820312 L 460.015625 -158.976562 L 470.28125 -151.796875 C 453.609375 -125.753906 441.039062 -101.925781 432.570312 -80.316406 C 424.238281 -59.058594 420.070312 -40.554688 420.070312 -24.808594 C 420.070312 -6.984375 424.941406 7.671875 434.683594 19.171875 C 444.164062 30.363281 456.203125 35.957031 470.804688 35.957031 C 486.472656 35.957031 503.917969 27.503906 523.144531 10.597656 L 527.28125 15.304688 L 522.984375 10.742188 C 525.808594 8.085938 527.890625 5.96875 529.234375 4.386719 C 529.769531 3.757812 530.136719 3.28125 530.335938 2.949219 C 530.101562 3.332031 529.988281 3.933594 529.988281 4.75 C 529.988281 5.4375 530.273438 6.164062 530.84375 6.925781 C 531.835938 8.246094 533.109375 8.90625 534.671875 8.90625 C 535.660156 8.90625 536.390625 8.738281 536.863281 8.398438 C 536.527344 8.636719 536.042969 9.074219 535.410156 9.710938 L 530.976562 5.277344 L 535.660156 9.441406 C 526.734375 19.484375 516.324219 27.757812 504.425781 34.265625 C 492.230469 40.933594 481.023438 44.269531 470.804688 44.269531 C 457.113281 44.269531 445.871094 39.875 437.082031 31.085938 C 428.292969 22.296875 423.898438 11.230469 423.898438 -2.109375 C 423.898438 -26.429688 439.382812 -66.074219 470.359375 -121.042969 C 500.917969 -175.269531 545.476562 -242.421875 604.03125 -322.496094 L 609.09375 -318.796875 L 610.195312 -312.625 C 599.976562 -310.800781 591.339844 -309.890625 584.285156 -309.890625 C 582.011719 -309.890625 579.652344 -309.984375 577.207031 -310.171875 C 574.871094 -310.351562 571.921875 -310.621094 568.355469 -310.976562 L 568.980469 -317.214844 L 574.234375 -313.796875 C 537.589844 -257.417969 504.636719 -208.785156 475.375 -167.890625 C 446.050781 -126.90625 419.710938 -93.058594 396.355469 -66.335938 C 372.816406 -39.410156 352.054688 -19.472656 334.070312 -6.523438 C 315.382812 6.929688 298.855469 13.65625 284.488281 13.65625 C 274.582031 13.65625 266.460938 10.269531 260.121094 3.488281 C 253.890625 -3.167969 250.777344 -11.546875 250.777344 -21.640625 C 250.777344 -26.765625 251.464844 -31.882812 252.839844 -36.992188 C 254.191406 -42.019531 256.5625 -47.734375 259.949219 -54.128906 C 263.25 -60.363281 267.882812 -67.640625 273.855469 -75.964844 C 279.679688 -84.085938 287.1875 -94.332031 296.378906 -106.703125 C 317.109375 -134.109375 333.703125 -156.496094 346.164062 -173.871094 C 358.503906 -191.078125 367.867188 -205.550781 374.253906 -217.285156 C 380.476562 -228.722656 384.492188 -238.632812 386.300781 -247.015625 C 388.140625 -255.554688 389.0625 -264.878906 389.0625 -274.988281 C 389.0625 -298.5625 382.566406 -316.683594 369.578125 -329.351562 C 356.542969 -342.0625 337.679688 -348.421875 312.992188 -348.421875 C 302.898438 -348.421875 291.835938 -347.0625 279.796875 -344.351562 C 267.648438 -341.613281 255.316406 -337.671875 242.800781 -332.527344 C 230.222656 -327.359375 217.726562 -321.15625 205.308594 -313.910156 C 192.859375 -306.648438 180.949219 -298.710938 169.582031 -290.097656 C 141.726562 -268.433594 120.347656 -244.671875 105.449219 -218.816406 C 90.703125 -193.21875 83.328125 -167.253906 83.328125 -140.925781 C 83.328125 -118.222656 89.316406 -100.074219 101.292969 -86.480469 C 113.0625 -73.121094 128.914062 -66.4375 148.84375 -66.4375 C 183.414062 -66.4375 216.617188 -86.589844 248.453125 -126.894531 C 263.582031 -145.804688 275.257812 -164.851562 283.480469 -184.035156 C 291.585938 -202.953125 295.640625 -219.898438 295.640625 -234.875 C 295.640625 -248.085938 292.546875 -258.238281 286.363281 -265.328125 C 280.398438 -272.164062 272.035156 -275.582031 261.265625 -275.582031 C 248.914062 -275.582031 236.242188 -272.210938 223.246094 -265.46875 C 209.894531 -258.535156 197.628906 -249.652344 186.457031 -238.820312 C 175.308594 -228.011719 166.195312 -216.027344 159.109375 -202.875 C 152.222656 -190.078125 148.777344 -177.699219 148.777344 -165.730469 C 148.777344 -154.875 151.402344 -146.148438 156.652344 -139.550781 C 161.554688 -133.386719 167.921875 -130.304688 175.761719 -130.304688 C 176.292969 -130.304688 176.722656 -130.328125 177.039062 -130.382812 C 177.109375 -130.394531 177.152344 -130.402344 177.175781 -130.410156 C 177.105469 -130.390625 177.019531 -130.351562 176.917969 -130.300781 C 175.484375 -129.585938 174.769531 -128.378906 174.769531 -126.675781 C 174.769531 -125.648438 175.207031 -124.699219 176.078125 -123.824219 C 176.949219 -122.953125 177.898438 -122.519531 178.925781 -122.519531 C 178.550781 -122.519531 178.15625 -122.449219 177.742188 -122.3125 Z M 176.777344 -121.988281 "/></g></g><g style="fill:#b0db9c;fill-opacity:1;"><g transform="translate(85.79907, 372.591352)"><path style="stroke:none" d="M 175.765625 -128.265625 C 176.816406 -128.609375 177.867188 -128.78125 178.921875 -128.78125 C 180.335938 -128.78125 181.046875 -128.078125 181.046875 -126.671875 C 181.046875 -124.910156 179.285156 -124.03125 175.765625 -124.03125 C 165.910156 -124.03125 157.90625 -127.898438 151.75 -135.640625 C 145.59375 -143.390625 142.515625 -153.421875 142.515625 -165.734375 C 142.515625 -178.753906 146.207031 -192.125 153.59375 -205.84375 C 160.976562 -219.570312 170.476562 -232.066406 182.09375 -243.328125 C 193.707031 -254.585938 206.460938 -263.820312 220.359375 -271.03125 C 234.253906 -278.25 247.890625 -281.859375 261.265625 -281.859375 C 273.929688 -281.859375 283.867188 -277.722656 291.078125 -269.453125 C 298.296875 -261.179688 301.90625 -249.65625 301.90625 -234.875 C 301.90625 -219.039062 297.679688 -201.269531 289.234375 -181.5625 C 280.796875 -161.863281 268.832031 -142.335938 253.34375 -122.984375 C 220.269531 -81.109375 185.4375 -60.171875 148.84375 -60.171875 C 127.03125 -60.171875 109.613281 -67.554688 96.59375 -82.328125 C 83.570312 -97.109375 77.0625 -116.640625 77.0625 -140.921875 C 77.0625 -168.367188 84.710938 -195.375 100.015625 -221.9375 C 115.328125 -248.507812 137.234375 -272.878906 165.734375 -295.046875 C 177.347656 -303.847656 189.488281 -311.941406 202.15625 -319.328125 C 214.820312 -326.710938 227.578125 -333.046875 240.421875 -338.328125 C 253.265625 -343.609375 265.929688 -347.65625 278.421875 -350.46875 C 290.910156 -353.28125 302.4375 -354.6875 313 -354.6875 C 339.382812 -354.6875 359.703125 -347.738281 373.953125 -333.84375 C 388.203125 -319.945312 395.328125 -300.328125 395.328125 -274.984375 C 395.328125 -264.429688 394.359375 -254.664062 392.421875 -245.6875 C 390.492188 -236.71875 386.273438 -226.25 379.765625 -214.28125 C 373.253906 -202.320312 363.75 -187.632812 351.25 -170.21875 C 338.757812 -152.800781 322.132812 -130.367188 301.375 -102.921875 C 292.226562 -90.609375 284.75 -80.40625 278.9375 -72.3125 C 273.132812 -64.21875 268.648438 -57.175781 265.484375 -51.1875 C 262.316406 -45.207031 260.117188 -39.929688 258.890625 -35.359375 C 257.660156 -30.785156 257.046875 -26.210938 257.046875 -21.640625 C 257.046875 -13.191406 259.59375 -6.238281 264.6875 -0.78125 C 269.789062 4.664062 276.390625 7.390625 284.484375 7.390625 C 297.503906 7.390625 312.8125 1.054688 330.40625 -11.609375 C 348 -24.273438 368.40625 -43.890625 391.625 -70.453125 C 414.851562 -97.023438 441.070312 -130.71875 470.28125 -171.53125 C 499.488281 -212.351562 532.390625 -260.914062 568.984375 -317.21875 C 572.503906 -316.863281 575.40625 -316.597656 577.6875 -316.421875 C 579.976562 -316.242188 582.175781 -316.15625 584.28125 -316.15625 C 590.96875 -316.15625 599.238281 -317.035156 609.09375 -318.796875 C 550.6875 -238.921875 506.265625 -171.976562 475.828125 -117.96875 C 445.390625 -63.957031 430.171875 -25.335938 430.171875 -2.109375 C 430.171875 9.503906 433.953125 19.09375 441.515625 26.65625 C 449.078125 34.21875 458.84375 38 470.8125 38 C 479.957031 38 490.160156 34.921875 501.421875 28.765625 C 512.679688 22.609375 522.535156 14.78125 530.984375 5.28125 C 532.742188 3.519531 533.972656 2.640625 534.671875 2.640625 C 535.722656 2.640625 536.25 3.34375 536.25 4.75 C 536.25 6.15625 533.257812 9.675781 527.28125 15.3125 C 506.875 33.25 488.050781 42.21875 470.8125 42.21875 C 454.269531 42.21875 440.632812 35.882812 429.90625 23.21875 C 419.175781 10.550781 413.8125 -5.457031 413.8125 -24.8125 C 413.8125 -41.34375 418.117188 -60.601562 426.734375 -82.59375 C 435.359375 -104.59375 448.113281 -128.785156 465 -155.171875 L 456.5625 -144.09375 L 444.421875 -127.203125 C 428.585938 -105.390625 413.101562 -85.859375 397.96875 -68.609375 C 382.84375 -51.367188 368.328125 -36.851562 354.421875 -25.0625 C 340.523438 -13.28125 327.59375 -4.222656 315.625 2.109375 C 303.664062 8.441406 292.9375 11.609375 283.4375 11.609375 C 271.125 11.609375 261.179688 7.125 253.609375 -1.84375 C 246.046875 -10.820312 242.265625 -22.695312 242.265625 -37.46875 C 242.265625 -45.21875 243.144531 -52.609375 244.90625 -59.640625 C 246.664062 -66.679688 250.007812 -74.863281 254.9375 -84.1875 C 259.863281 -93.507812 266.8125 -104.414062 275.78125 -116.90625 C 284.75 -129.394531 296.445312 -145.144531 310.875 -164.15625 C 326.007812 -184.207031 338.148438 -200.742188 347.296875 -213.765625 C 356.453125 -226.785156 363.578125 -237.957031 368.671875 -247.28125 C 373.773438 -256.601562 377.117188 -264.957031 378.703125 -272.34375 C 380.285156 -279.738281 381.078125 -287.832031 381.078125 -296.625 C 381.078125 -313.164062 375.09375 -326.1875 363.125 -335.6875 C 351.164062 -345.1875 334.628906 -349.9375 313.515625 -349.9375 C 295.921875 -349.9375 278.238281 -346.859375 260.46875 -340.703125 C 242.707031 -334.546875 225.46875 -326.1875 208.75 -315.625 C 192.03125 -305.070312 176.457031 -292.582031 162.03125 -278.15625 C 147.601562 -263.726562 134.9375 -248.421875 124.03125 -232.234375 C 113.125 -216.046875 104.59375 -199.15625 98.4375 -181.5625 C 92.28125 -163.96875 89.203125 -146.550781 89.203125 -129.3125 C 89.203125 -109.957031 94.65625 -94.382812 105.5625 -82.59375 C 116.46875 -70.8125 130.894531 -64.921875 148.84375 -64.921875 C 183.320312 -64.921875 216.222656 -84.273438 247.546875 -122.984375 C 263.023438 -141.984375 275.160156 -161.421875 283.953125 -181.296875 C 292.753906 -201.179688 297.15625 -218.863281 297.15625 -234.34375 C 297.15625 -247.71875 294.078125 -258.1875 287.921875 -265.75 C 281.765625 -273.3125 273.234375 -277.09375 262.328125 -277.09375 C 250.710938 -277.09375 238.484375 -273.132812 225.640625 -265.21875 C 212.796875 -257.300781 201.003906 -247.273438 190.265625 -235.140625 C 179.535156 -223.003906 170.648438 -209.632812 163.609375 -195.03125 C 156.578125 -180.425781 153.0625 -166.4375 153.0625 -153.0625 C 153.0625 -146.03125 155.082031 -140.140625 159.125 -135.390625 C 163.175781 -130.640625 168.019531 -128.265625 173.65625 -128.265625 Z M 175.765625 -128.265625 "/></g></g><g style="fill:#000000;fill-opacity:1;"><g transform="translate(596.25816, 366.599896)"><path style="stroke:none" d="M 60.445312 -1.777344 C 60.886719 -1.777344 61.207031 -1.578125 61.40625 -1.175781 C 61.503906 -0.976562 61.554688 -0.734375 61.554688 -0.445312 C 61.554688 -0.160156 61.503906 0.0859375 61.40625 0.285156 C 61.207031 0.683594 60.886719 0.882812 60.445312 0.882812 C 58.890625 0.882812 57.660156 0.859375 56.75 0.808594 L 56.800781 -0.0742188 L 56.785156 0.808594 L 51.648438 0.734375 L 51.664062 -0.148438 L 51.675781 0.734375 L 46.914062 0.808594 L 46.898438 -0.0742188 L 46.953125 0.808594 C 46.140625 0.859375 45.007812 0.882812 43.546875 0.882812 C 42.859375 0.882812 42.515625 0.441406 42.515625 -0.445312 C 42.515625 -1.332031 42.859375 -1.777344 43.546875 -1.777344 C 45.140625 -1.777344 46.300781 -1.898438 47.027344 -2.140625 C 47.585938 -2.328125 47.949219 -2.640625 48.121094 -3.078125 C 48.347656 -3.648438 48.414062 -4.613281 48.324219 -5.972656 L 48.324219 -5.984375 L 46.984375 -39.867188 L 47.867188 -39.902344 L 48.679688 -39.550781 L 31.695312 -0.148438 L 31.683594 -0.125 C 31.421875 0.398438 30.960938 0.660156 30.296875 0.660156 C 29.804688 0.660156 29.375 0.476562 29.003906 0.105469 L 28.894531 -0.00390625 L 10.515625 -39.078125 L 11.316406 -39.453125 L 12.199219 -39.433594 L 11.527344 -8.09375 C 11.484375 -5.691406 11.859375 -4.03125 12.652344 -3.109375 C 13.421875 -2.222656 14.859375 -1.777344 16.972656 -1.777344 C 17.660156 -1.777344 18.003906 -1.332031 18.003906 -0.445312 C 18.003906 0.441406 17.660156 0.882812 16.972656 0.882812 C 15.5625 0.882812 14.476562 0.859375 13.714844 0.808594 L 13.773438 -0.0742188 L 13.753906 0.808594 L 9.734375 0.734375 L 9.75 -0.148438 L 9.769531 0.734375 L 5.898438 0.808594 L 5.882812 -0.0742188 L 5.945312 0.808594 C 5.226562 0.859375 4.214844 0.882812 2.902344 0.882812 C 2.214844 0.882812 1.871094 0.441406 1.871094 -0.445312 C 1.871094 -1.332031 2.214844 -1.777344 2.902344 -1.777344 C 4.710938 -1.777344 5.984375 -2.226562 6.722656 -3.128906 C 7.511719 -4.089844 7.929688 -5.753906 7.976562 -8.132812 L 8.644531 -42.671875 L 9.527344 -42.65625 L 8.820312 -42.125 C 7.507812 -43.875 5.710938 -44.75 3.425781 -44.75 C 2.734375 -44.75 2.390625 -45.191406 2.390625 -46.078125 C 2.390625 -46.96875 2.734375 -47.410156 3.425781 -47.410156 L 3.4375 -47.410156 L 6.234375 -47.335938 L 6.265625 -47.332031 C 6.734375 -47.285156 7.398438 -47.261719 8.261719 -47.261719 C 9.132812 -47.261719 9.867188 -47.285156 10.464844 -47.332031 C 11.105469 -47.382812 11.613281 -47.410156 11.984375 -47.410156 C 12.894531 -47.410156 13.648438 -47.078125 14.246094 -46.410156 C 14.722656 -45.875 15.375 -44.753906 16.203125 -43.042969 L 32.808594 -8.046875 L 32.011719 -7.667969 L 31.199219 -8.023438 L 47.429688 -45.019531 C 48.128906 -46.613281 49.144531 -47.410156 50.472656 -47.410156 C 50.75 -47.410156 51.140625 -47.382812 51.644531 -47.332031 C 52.085938 -47.285156 52.6875 -47.261719 53.449219 -47.261719 L 56.929688 -47.335938 L 56.949219 -46.453125 L 56.867188 -47.332031 C 57.441406 -47.382812 58.285156 -47.410156 59.40625 -47.410156 C 59.84375 -47.410156 60.164062 -47.210938 60.363281 -46.808594 C 60.460938 -46.609375 60.511719 -46.367188 60.511719 -46.078125 C 60.511719 -45.792969 60.460938 -45.546875 60.363281 -45.347656 C 60.164062 -44.949219 59.84375 -44.75 59.40625 -44.75 C 57.105469 -44.75 55.496094 -44.441406 54.578125 -43.820312 C 53.777344 -43.28125 53.398438 -42.179688 53.441406 -40.519531 L 54.929688 -6.066406 C 54.972656 -4.644531 55.132812 -3.636719 55.40625 -3.050781 C 55.617188 -2.597656 56.015625 -2.285156 56.601562 -2.113281 C 57.363281 -1.890625 58.644531 -1.777344 60.445312 -1.777344 Z M 60.445312 -0.0078125 C 58.476562 -0.0078125 57.027344 -0.144531 56.101562 -0.417969 C 55.003906 -0.742188 54.238281 -1.371094 53.800781 -2.308594 C 53.429688 -3.113281 53.214844 -4.339844 53.160156 -5.992188 L 51.671875 -40.472656 C 51.613281 -42.78125 52.253906 -44.386719 53.589844 -45.285156 C 54.804688 -46.105469 56.742188 -46.515625 59.40625 -46.515625 C 59.113281 -46.515625 58.90625 -46.390625 58.78125 -46.140625 C 58.761719 -46.097656 58.746094 -46.0625 58.742188 -46.03125 C 58.742188 -46.039062 58.742188 -46.054688 58.742188 -46.078125 C 58.742188 -46.105469 58.742188 -46.121094 58.742188 -46.128906 C 58.746094 -46.097656 58.761719 -46.0625 58.78125 -46.019531 C 58.90625 -45.769531 59.113281 -45.640625 59.40625 -45.640625 C 58.339844 -45.640625 57.546875 -45.617188 57.027344 -45.570312 L 56.996094 -45.570312 L 53.449219 -45.492188 C 52.625 -45.492188 51.960938 -45.519531 51.457031 -45.574219 C 51.019531 -45.617188 50.6875 -45.640625 50.472656 -45.640625 C 49.914062 -45.640625 49.4375 -45.199219 49.046875 -44.308594 L 32.042969 -5.539062 L 14.613281 -42.269531 C 13.855469 -43.832031 13.292969 -44.820312 12.925781 -45.230469 C 12.679688 -45.503906 12.367188 -45.640625 11.984375 -45.640625 C 11.660156 -45.640625 11.199219 -45.617188 10.605469 -45.570312 C 9.960938 -45.519531 9.179688 -45.492188 8.261719 -45.492188 C 7.339844 -45.492188 6.617188 -45.519531 6.089844 -45.570312 L 6.179688 -46.453125 L 6.15625 -45.566406 L 3.402344 -45.644531 L 3.425781 -46.527344 L 3.425781 -45.640625 C 3.644531 -45.640625 3.832031 -45.71875 3.984375 -45.875 C 4.0625 -45.953125 4.121094 -46.039062 4.152344 -46.136719 C 4.160156 -46.15625 4.164062 -46.171875 4.164062 -46.175781 C 4.160156 -46.152344 4.160156 -46.121094 4.160156 -46.078125 C 4.160156 -46.039062 4.160156 -46.003906 4.164062 -45.980469 C 4.164062 -45.988281 4.160156 -46.003906 4.152344 -46.023438 C 4.121094 -46.117188 4.0625 -46.207031 3.984375 -46.285156 C 3.832031 -46.441406 3.644531 -46.515625 3.425781 -46.515625 C 6.300781 -46.515625 8.570312 -45.40625 10.234375 -43.1875 L 10.417969 -42.941406 L 9.742188 -8.097656 C 9.6875 -5.3125 9.136719 -3.28125 8.089844 -2.007812 C 6.996094 -0.675781 5.265625 -0.0078125 2.902344 -0.0078125 C 3.121094 -0.0078125 3.308594 -0.0859375 3.464844 -0.242188 C 3.542969 -0.320312 3.597656 -0.40625 3.628906 -0.503906 C 3.636719 -0.523438 3.640625 -0.539062 3.640625 -0.542969 C 3.640625 -0.519531 3.636719 -0.488281 3.636719 -0.445312 C 3.636719 -0.40625 3.640625 -0.371094 3.640625 -0.347656 C 3.640625 -0.355469 3.636719 -0.371094 3.628906 -0.390625 C 3.597656 -0.484375 3.542969 -0.574219 3.464844 -0.652344 C 3.308594 -0.808594 3.121094 -0.882812 2.902344 -0.882812 C 4.171875 -0.882812 5.144531 -0.90625 5.816406 -0.957031 L 5.839844 -0.957031 L 9.75 -1.03125 L 13.808594 -0.957031 L 13.832031 -0.957031 C 14.554688 -0.910156 15.601562 -0.882812 16.972656 -0.882812 C 16.753906 -0.882812 16.566406 -0.808594 16.414062 -0.652344 C 16.332031 -0.574219 16.277344 -0.484375 16.246094 -0.390625 C 16.238281 -0.371094 16.234375 -0.355469 16.234375 -0.347656 C 16.238281 -0.371094 16.238281 -0.40625 16.238281 -0.445312 C 16.238281 -0.488281 16.238281 -0.519531 16.234375 -0.542969 C 16.234375 -0.539062 16.238281 -0.523438 16.246094 -0.503906 C 16.277344 -0.40625 16.332031 -0.320312 16.414062 -0.242188 C 16.566406 -0.0859375 16.753906 -0.0078125 16.972656 -0.0078125 C 14.320312 -0.0078125 12.433594 -0.65625 11.316406 -1.953125 C 10.226562 -3.214844 9.707031 -5.277344 9.761719 -8.132812 L 10.429688 -39.472656 L 12.113281 -39.832031 L 30.429688 -0.898438 L 29.628906 -0.519531 L 30.253906 -1.144531 C 30.273438 -1.125 30.292969 -1.109375 30.304688 -1.105469 C 30.300781 -1.105469 30.300781 -1.105469 30.296875 -1.105469 C 30.3125 -1.105469 30.324219 -1.109375 30.328125 -1.109375 C 30.3125 -1.105469 30.296875 -1.097656 30.273438 -1.089844 C 30.199219 -1.050781 30.140625 -0.992188 30.101562 -0.917969 L 30.894531 -0.519531 L 30.082031 -0.871094 L 47.054688 -40.25 L 48.75 -39.9375 L 50.089844 -6.066406 L 49.207031 -6.03125 L 50.089844 -6.089844 C 50.195312 -4.46875 50.089844 -3.25 49.769531 -2.429688 C 49.394531 -1.480469 48.667969 -0.824219 47.585938 -0.464844 C 46.679688 -0.160156 45.332031 -0.0078125 43.546875 -0.0078125 C 43.769531 -0.0078125 43.953125 -0.0859375 44.109375 -0.242188 C 44.1875 -0.320312 44.242188 -0.40625 44.277344 -0.503906 C 44.28125 -0.523438 44.285156 -0.539062 44.289062 -0.542969 C 44.285156 -0.519531 44.285156 -0.488281 44.285156 -0.445312 C 44.285156 -0.40625 44.285156 -0.371094 44.289062 -0.347656 C 44.285156 -0.355469 44.28125 -0.371094 44.277344 -0.390625 C 44.242188 -0.484375 44.1875 -0.574219 44.109375 -0.652344 C 43.953125 -0.808594 43.769531 -0.882812 43.546875 -0.882812 C 44.96875 -0.882812 46.066406 -0.910156 46.84375 -0.957031 L 46.863281 -0.957031 L 51.664062 -1.03125 L 56.832031 -0.957031 L 56.847656 -0.957031 C 57.726562 -0.910156 58.925781 -0.882812 60.445312 -0.882812 C 60.15625 -0.882812 59.949219 -0.757812 59.824219 -0.507812 C 59.804688 -0.464844 59.789062 -0.429688 59.785156 -0.398438 C 59.785156 -0.40625 59.785156 -0.421875 59.785156 -0.445312 C 59.785156 -0.472656 59.785156 -0.488281 59.785156 -0.496094 C 59.789062 -0.464844 59.804688 -0.429688 59.824219 -0.386719 C 59.949219 -0.136719 60.15625 -0.0078125 60.445312 -0.0078125 Z M 60.445312 -0.0078125 "/></g></g><g style="fill:#000000;fill-opacity:1;"><g transform="translate(655.437015, 366.599896)"><path style="stroke:none" d="M 24.78125 -27.085938 C 28.914062 -26.769531 32.257812 -25.386719 34.816406 -22.933594 C 37.40625 -20.453125 38.699219 -17.375 38.699219 -13.699219 C 38.699219 -10.902344 38.011719 -8.367188 36.636719 -6.09375 C 35.265625 -3.820312 33.378906 -2.039062 30.976562 -0.746094 C 28.589844 0.539062 25.929688 1.183594 23.003906 1.183594 C 21.34375 1.183594 19.53125 1.105469 17.574219 0.957031 C 16.890625 0.90625 16.078125 0.859375 15.140625 0.808594 C 14.210938 0.757812 13.1875 0.734375 12.058594 0.734375 L 7.011719 0.808594 L 6.996094 -0.0742188 L 7.046875 0.808594 C 6.136719 0.859375 4.855469 0.882812 3.199219 0.882812 C 2.511719 0.882812 2.167969 0.441406 2.167969 -0.445312 C 2.167969 -1.332031 2.511719 -1.777344 3.199219 -1.777344 C 4.949219 -1.777344 6.226562 -1.902344 7.035156 -2.148438 C 7.6875 -2.347656 8.132812 -2.679688 8.367188 -3.148438 C 8.652344 -3.71875 8.792969 -4.679688 8.792969 -6.03125 L 8.792969 -40.496094 C 8.792969 -41.855469 8.660156 -42.824219 8.390625 -43.398438 C 8.179688 -43.859375 7.761719 -44.183594 7.140625 -44.378906 C 6.359375 -44.625 5.09375 -44.75 3.351562 -44.75 C 2.910156 -44.75 2.59375 -44.949219 2.390625 -45.347656 C 2.292969 -45.546875 2.242188 -45.792969 2.242188 -46.078125 C 2.242188 -46.367188 2.292969 -46.609375 2.390625 -46.808594 C 2.59375 -47.210938 2.910156 -47.410156 3.351562 -47.410156 L 7.027344 -47.335938 L 7.039062 -47.335938 C 9.109375 -47.238281 10.785156 -47.1875 12.058594 -47.1875 C 12.933594 -47.1875 13.746094 -47.210938 14.496094 -47.257812 C 15.257812 -47.308594 15.90625 -47.359375 16.445312 -47.40625 C 18.007812 -47.558594 19.476562 -47.632812 20.84375 -47.632812 C 25.234375 -47.632812 28.554688 -46.65625 30.804688 -44.699219 C 33.089844 -42.710938 34.234375 -40.121094 34.234375 -36.921875 C 34.234375 -34.328125 33.398438 -32.019531 31.722656 -29.996094 C 30.085938 -28.015625 27.859375 -26.476562 25.035156 -25.378906 L 24.714844 -26.203125 Z M 24.648438 -25.320312 L 24.394531 -27.027344 C 26.929688 -28.015625 28.921875 -29.378906 30.359375 -31.121094 C 31.765625 -32.820312 32.464844 -34.753906 32.464844 -36.921875 C 32.464844 -39.582031 31.523438 -41.730469 29.644531 -43.367188 C 27.726562 -45.03125 24.792969 -45.867188 20.84375 -45.867188 C 19.53125 -45.867188 18.121094 -45.792969 16.605469 -45.644531 C 16.050781 -45.59375 15.386719 -45.546875 14.609375 -45.496094 C 13.820312 -45.445312 12.972656 -45.417969 12.058594 -45.417969 C 10.753906 -45.417969 9.054688 -45.46875 6.957031 -45.570312 L 6.996094 -46.453125 L 6.980469 -45.566406 L 3.351562 -45.640625 C 3.640625 -45.640625 3.847656 -45.769531 3.972656 -46.019531 C 3.992188 -46.0625 4.007812 -46.097656 4.011719 -46.128906 C 4.011719 -46.121094 4.011719 -46.105469 4.011719 -46.078125 C 4.011719 -46.054688 4.011719 -46.039062 4.011719 -46.03125 C 4.007812 -46.0625 3.992188 -46.097656 3.972656 -46.140625 C 3.847656 -46.390625 3.640625 -46.515625 3.351562 -46.515625 C 5.277344 -46.515625 6.71875 -46.367188 7.671875 -46.066406 C 8.789062 -45.714844 9.5625 -45.074219 9.996094 -44.144531 C 10.371094 -43.332031 10.5625 -42.117188 10.5625 -40.496094 L 10.5625 -6.03125 C 10.5625 -4.402344 10.355469 -3.179688 9.945312 -2.359375 C 9.488281 -1.4375 8.6875 -0.804688 7.554688 -0.457031 C 6.574219 -0.160156 5.125 -0.0078125 3.199219 -0.0078125 C 3.421875 -0.0078125 3.605469 -0.0859375 3.761719 -0.242188 C 3.839844 -0.320312 3.894531 -0.40625 3.929688 -0.503906 C 3.933594 -0.523438 3.9375 -0.539062 3.941406 -0.542969 C 3.9375 -0.519531 3.9375 -0.488281 3.9375 -0.445312 C 3.9375 -0.40625 3.9375 -0.371094 3.941406 -0.347656 C 3.9375 -0.355469 3.933594 -0.371094 3.929688 -0.390625 C 3.894531 -0.484375 3.839844 -0.574219 3.761719 -0.652344 C 3.605469 -0.808594 3.421875 -0.882812 3.199219 -0.882812 C 4.824219 -0.882812 6.070312 -0.910156 6.949219 -0.957031 L 6.964844 -0.957031 L 12.058594 -1.03125 C 13.214844 -1.03125 14.273438 -1.007812 15.234375 -0.957031 C 16.179688 -0.90625 17.007812 -0.855469 17.710938 -0.808594 C 19.625 -0.660156 21.386719 -0.585938 23.003906 -0.585938 C 25.632812 -0.585938 28.011719 -1.160156 30.140625 -2.304688 C 32.253906 -3.445312 33.917969 -5.011719 35.125 -7.007812 C 36.328125 -9 36.933594 -11.230469 36.933594 -13.699219 C 36.933594 -16.871094 35.820312 -19.523438 33.59375 -21.65625 C 31.339844 -23.820312 28.359375 -25.039062 24.648438 -25.320312 Z M 19.28125 -44.75 C 18.089844 -44.75 17.21875 -44.652344 16.667969 -44.460938 C 16.273438 -44.324219 15.976562 -44.019531 15.78125 -43.546875 C 15.527344 -42.933594 15.398438 -41.867188 15.398438 -40.347656 L 15.398438 -26.203125 L 14.515625 -26.203125 L 14.535156 -27.085938 L 17.886719 -27.011719 L 17.867188 -26.128906 L 17.867188 -27.011719 C 21.234375 -27.011719 23.699219 -27.851562 25.257812 -29.523438 C 26.839844 -31.214844 27.628906 -33.484375 27.628906 -36.328125 C 27.628906 -38.882812 26.945312 -40.933594 25.578125 -42.480469 C 24.242188 -43.992188 22.140625 -44.75 19.28125 -44.75 Z M 19.28125 -46.515625 C 22.671875 -46.515625 25.214844 -45.5625 26.902344 -43.648438 C 28.566406 -41.769531 29.394531 -39.332031 29.394531 -36.328125 C 29.394531 -33.019531 28.449219 -30.347656 26.550781 -28.316406 C 24.640625 -26.269531 21.746094 -25.246094 17.867188 -25.246094 L 17.855469 -25.246094 L 13.632812 -25.339844 L 13.632812 -40.347656 C 13.632812 -42.101562 13.804688 -43.394531 14.144531 -44.222656 C 14.546875 -45.1875 15.191406 -45.824219 16.089844 -46.132812 C 16.828125 -46.390625 17.890625 -46.515625 19.28125 -46.515625 Z M 21.886719 -1.925781 C 25.253906 -1.925781 27.734375 -2.765625 29.320312 -4.441406 C 30.921875 -6.132812 31.722656 -8.597656 31.722656 -11.835938 C 31.722656 -15.375 30.699219 -18.222656 28.652344 -20.386719 C 26.613281 -22.535156 23.785156 -23.636719 20.164062 -23.683594 C 18.59375 -23.730469 16.730469 -23.683594 14.578125 -23.535156 L 14.515625 -24.417969 L 15.398438 -24.417969 L 15.398438 -6.03125 C 15.398438 -4.886719 15.550781 -4.035156 15.855469 -3.46875 C 16.109375 -2.988281 16.65625 -2.625 17.488281 -2.371094 C 18.472656 -2.074219 19.9375 -1.925781 21.886719 -1.925781 Z M 21.886719 -0.15625 C 19.765625 -0.15625 18.128906 -0.332031 16.976562 -0.679688 C 15.675781 -1.074219 14.78125 -1.726562 14.296875 -2.632812 C 13.851562 -3.460938 13.632812 -4.589844 13.632812 -6.03125 L 13.632812 -25.242188 L 14.457031 -25.300781 C 16.667969 -25.449219 18.578125 -25.5 20.183594 -25.449219 C 24.304688 -25.398438 27.554688 -24.113281 29.933594 -21.601562 C 32.304688 -19.097656 33.488281 -15.84375 33.488281 -11.835938 C 33.488281 -8.128906 32.527344 -5.257812 30.605469 -3.226562 C 28.667969 -1.179688 25.761719 -0.15625 21.886719 -0.15625 Z M 21.886719 -0.15625 "/></g></g><g style="fill:#000000;fill-opacity:1;"><g transform="translate(693.927055, 366.599896)"><path style="stroke:none" d=""/></g></g><g style="fill:#b0db9c;fill-opacity:1;"><g transform="translate(596.25816, 366.599896)"><path style="stroke:none" d="M 60.4375 -0.890625 C 60.59375 -0.890625 60.671875 -0.738281 60.671875 -0.4375 C 60.671875 -0.144531 60.59375 0 60.4375 0 C 58.90625 0 57.691406 -0.0234375 56.796875 -0.078125 L 51.65625 -0.15625 L 46.890625 -0.078125 C 46.097656 -0.0234375 44.984375 0 43.546875 0 C 43.441406 0 43.390625 -0.144531 43.390625 -0.4375 C 43.390625 -0.738281 43.441406 -0.890625 43.546875 -0.890625 C 45.234375 -0.890625 46.484375 -1.023438 47.296875 -1.296875 C 48.117188 -1.578125 48.664062 -2.0625 48.9375 -2.75 C 49.21875 -3.445312 49.304688 -4.539062 49.203125 -6.03125 L 47.859375 -39.90625 L 30.890625 -0.515625 C 30.796875 -0.316406 30.597656 -0.21875 30.296875 -0.21875 C 30.046875 -0.21875 29.820312 -0.316406 29.625 -0.515625 L 11.3125 -39.453125 L 10.640625 -8.109375 C 10.585938 -5.484375 11.035156 -3.625 11.984375 -2.53125 C 12.929688 -1.4375 14.59375 -0.890625 16.96875 -0.890625 C 17.070312 -0.890625 17.125 -0.738281 17.125 -0.4375 C 17.125 -0.144531 17.070312 0 16.96875 0 C 15.582031 0 14.515625 -0.0234375 13.765625 -0.078125 L 9.75 -0.15625 L 5.875 -0.078125 C 5.1875 -0.0234375 4.195312 0 2.90625 0 C 2.800781 0 2.75 -0.144531 2.75 -0.4375 C 2.75 -0.738281 2.800781 -0.890625 2.90625 -0.890625 C 4.988281 -0.890625 6.488281 -1.445312 7.40625 -2.5625 C 8.320312 -3.6875 8.804688 -5.535156 8.859375 -8.109375 L 9.53125 -42.65625 C 8.039062 -44.632812 6.003906 -45.625 3.421875 -45.625 C 3.328125 -45.625 3.28125 -45.773438 3.28125 -46.078125 C 3.28125 -46.378906 3.328125 -46.53125 3.421875 -46.53125 L 6.171875 -46.453125 C 6.671875 -46.398438 7.367188 -46.375 8.265625 -46.375 C 9.160156 -46.375 9.914062 -46.398438 10.53125 -46.453125 C 11.15625 -46.503906 11.640625 -46.53125 11.984375 -46.53125 C 12.628906 -46.53125 13.160156 -46.289062 13.578125 -45.8125 C 14.003906 -45.34375 14.613281 -44.289062 15.40625 -42.65625 L 32.015625 -7.671875 L 48.234375 -44.65625 C 48.773438 -45.90625 49.519531 -46.53125 50.46875 -46.53125 C 50.71875 -46.53125 51.078125 -46.503906 51.546875 -46.453125 C 52.015625 -46.398438 52.648438 -46.375 53.453125 -46.375 L 56.9375 -46.453125 C 57.488281 -46.503906 58.3125 -46.53125 59.40625 -46.53125 C 59.550781 -46.53125 59.625 -46.378906 59.625 -46.078125 C 59.625 -45.773438 59.550781 -45.625 59.40625 -45.625 C 56.914062 -45.625 55.140625 -45.265625 54.078125 -44.546875 C 53.015625 -43.828125 52.503906 -42.476562 52.546875 -40.5 L 54.046875 -6.03125 C 54.085938 -4.488281 54.269531 -3.367188 54.59375 -2.671875 C 54.914062 -1.984375 55.5 -1.515625 56.34375 -1.265625 C 57.1875 -1.015625 58.550781 -0.890625 60.4375 -0.890625 Z M 60.4375 -0.890625 "/></g></g><g style="fill:#b0db9c;fill-opacity:1;"><g transform="translate(655.437015, 366.599896)"><path style="stroke:none" d="M 24.71875 -26.203125 C 28.632812 -25.898438 31.796875 -24.59375 34.203125 -22.28125 C 36.609375 -19.976562 37.8125 -17.117188 37.8125 -13.703125 C 37.8125 -11.066406 37.164062 -8.679688 35.875 -6.546875 C 34.582031 -4.410156 32.804688 -2.734375 30.546875 -1.515625 C 28.296875 -0.304688 25.78125 0.296875 23 0.296875 C 21.363281 0.296875 19.578125 0.222656 17.640625 0.078125 C 16.941406 0.0234375 16.117188 -0.0234375 15.171875 -0.078125 C 14.234375 -0.128906 13.195312 -0.15625 12.0625 -0.15625 L 7 -0.078125 C 6.101562 -0.0234375 4.835938 0 3.203125 0 C 3.097656 0 3.046875 -0.144531 3.046875 -0.4375 C 3.046875 -0.738281 3.097656 -0.890625 3.203125 -0.890625 C 5.035156 -0.890625 6.398438 -1.023438 7.296875 -1.296875 C 8.191406 -1.578125 8.8125 -2.0625 9.15625 -2.75 C 9.5 -3.445312 9.671875 -4.539062 9.671875 -6.03125 L 9.671875 -40.5 C 9.671875 -41.988281 9.507812 -43.078125 9.1875 -43.765625 C 8.863281 -44.460938 8.269531 -44.945312 7.40625 -45.21875 C 6.539062 -45.488281 5.1875 -45.625 3.34375 -45.625 C 3.195312 -45.625 3.125 -45.773438 3.125 -46.078125 C 3.125 -46.378906 3.195312 -46.53125 3.34375 -46.53125 L 7 -46.453125 C 9.082031 -46.347656 10.769531 -46.296875 12.0625 -46.296875 C 12.957031 -46.296875 13.785156 -46.320312 14.546875 -46.375 C 15.316406 -46.425781 15.976562 -46.476562 16.53125 -46.53125 C 18.0625 -46.675781 19.5 -46.75 20.84375 -46.75 C 25.007812 -46.75 28.132812 -45.84375 30.21875 -44.03125 C 32.300781 -42.21875 33.34375 -39.847656 33.34375 -36.921875 C 33.34375 -34.535156 32.570312 -32.410156 31.03125 -30.546875 C 29.5 -28.691406 27.394531 -27.242188 24.71875 -26.203125 Z M 19.28125 -45.625 C 17.988281 -45.625 17.019531 -45.507812 16.375 -45.28125 C 15.726562 -45.0625 15.253906 -44.59375 14.953125 -43.875 C 14.660156 -43.15625 14.515625 -41.976562 14.515625 -40.34375 L 14.515625 -26.203125 L 17.859375 -26.125 C 21.484375 -26.125 24.164062 -27.050781 25.90625 -28.90625 C 27.644531 -30.769531 28.515625 -33.242188 28.515625 -36.328125 C 28.515625 -39.109375 27.753906 -41.351562 26.234375 -43.0625 C 24.722656 -44.769531 22.40625 -45.625 19.28125 -45.625 Z M 21.890625 -1.046875 C 25.503906 -1.046875 28.191406 -1.972656 29.953125 -3.828125 C 31.722656 -5.691406 32.609375 -8.359375 32.609375 -11.828125 C 32.609375 -15.609375 31.503906 -18.660156 29.296875 -20.984375 C 27.085938 -23.316406 24.046875 -24.507812 20.171875 -24.5625 C 18.585938 -24.613281 16.703125 -24.566406 14.515625 -24.421875 L 14.515625 -6.03125 C 14.515625 -4.738281 14.695312 -3.742188 15.0625 -3.046875 C 15.4375 -2.359375 16.15625 -1.851562 17.21875 -1.53125 C 18.289062 -1.207031 19.847656 -1.046875 21.890625 -1.046875 Z M 21.890625 -1.046875 "/></g></g><g style="fill:#b0db9c;fill-opacity:1;"><g transform="translate(693.927055, 366.599896)"><path style="stroke:none" d=""/></g></g><g style="fill:#000000;fill-opacity:1;"><g transform="translate(312.316079, 504.98122)"><path style="stroke:none" d="M 46.875 -73.890625 C 51.757812 -73.890625 55.878906 -73.539062 59.242188 -72.835938 C 62.628906 -72.125 66.011719 -70.90625 69.386719 -69.179688 L 69.417969 -69.164062 L 69.445312 -69.148438 C 70.273438 -68.675781 70.785156 -68.160156 70.96875 -67.601562 C 71.066406 -67.308594 71.199219 -66.667969 71.363281 -65.6875 L 71.371094 -65.644531 L 72.75 -51.960938 L 72.75 -51.890625 C 72.75 -51.28125 72.488281 -50.8125 71.964844 -50.480469 C 71.675781 -50.292969 71.316406 -50.183594 70.890625 -50.144531 C 70.472656 -50.105469 70.101562 -50.148438 69.78125 -50.273438 C 69.261719 -50.472656 68.914062 -50.832031 68.742188 -51.351562 L 68.730469 -51.382812 L 68.71875 -51.417969 C 67.046875 -57.488281 64.367188 -62.019531 60.675781 -65.011719 C 57.007812 -67.984375 52.292969 -69.46875 46.53125 -69.46875 C 40.386719 -69.46875 34.988281 -68.125 30.332031 -65.433594 C 25.695312 -62.753906 22.109375 -58.925781 19.566406 -53.957031 C 17.003906 -48.941406 15.722656 -43.082031 15.722656 -36.382812 C 15.722656 -29.992188 17.136719 -24.140625 19.957031 -18.824219 C 22.773438 -13.523438 26.570312 -9.339844 31.351562 -6.273438 C 36.109375 -3.222656 41.285156 -1.695312 46.875 -1.695312 C 52.796875 -1.695312 57.574219 -3.121094 61.207031 -5.96875 C 64.871094 -8.84375 67.683594 -13.265625 69.652344 -19.242188 L 70.9375 -18.816406 L 69.585938 -18.816406 C 69.585938 -19.503906 69.914062 -19.980469 70.578125 -20.246094 C 70.835938 -20.347656 71.144531 -20.402344 71.507812 -20.402344 C 71.960938 -20.402344 72.335938 -20.335938 72.640625 -20.207031 C 73.320312 -19.914062 73.660156 -19.414062 73.660156 -18.703125 L 73.660156 -18.644531 L 72.515625 -6.035156 C 72.421875 -4.898438 72.234375 -4.117188 71.953125 -3.695312 C 71.699219 -3.316406 71.269531 -2.925781 70.664062 -2.523438 L 70.585938 -2.46875 L 70.5 -2.429688 C 66.449219 -0.484375 62.644531 0.882812 59.082031 1.664062 C 55.527344 2.445312 51.457031 2.835938 46.875 2.835938 C 38.675781 2.835938 31.34375 1.210938 24.882812 -2.039062 C 18.378906 -5.3125 13.3125 -9.90625 9.679688 -15.828125 C 6.050781 -21.75 4.234375 -28.523438 4.234375 -36.152344 C 4.234375 -43.566406 6.09375 -50.144531 9.8125 -55.878906 C 13.523438 -61.601562 18.628906 -66.039062 25.128906 -69.191406 C 31.585938 -72.324219 38.835938 -73.890625 46.875 -73.890625 Z M 46.875 -71.179688 C 39.25 -71.179688 32.394531 -69.707031 26.308594 -66.753906 C 20.261719 -63.824219 15.523438 -59.707031 12.085938 -54.40625 C 8.65625 -49.117188 6.941406 -43.035156 6.941406 -36.152344 C 6.941406 -29.03125 8.625 -22.730469 11.988281 -17.246094 C 15.351562 -11.761719 20.054688 -7.5 26.097656 -4.460938 C 32.179688 -1.402344 39.105469 0.128906 46.875 0.128906 C 51.261719 0.128906 55.136719 -0.242188 58.5 -0.980469 C 61.859375 -1.71875 65.464844 -3.015625 69.324219 -4.871094 L 69.910156 -3.648438 L 69.160156 -4.777344 C 69.464844 -4.980469 69.644531 -5.121094 69.699219 -5.199219 C 69.675781 -5.167969 69.660156 -5.136719 69.648438 -5.109375 L 69.644531 -5.113281 C 69.660156 -5.15625 69.679688 -5.226562 69.695312 -5.3125 C 69.742188 -5.546875 69.785156 -5.871094 69.816406 -6.28125 L 70.957031 -18.828125 L 72.308594 -18.703125 L 70.953125 -18.703125 C 70.953125 -18.222656 71.160156 -17.894531 71.574219 -17.714844 C 71.617188 -17.695312 71.648438 -17.6875 71.667969 -17.683594 C 71.628906 -17.6875 71.578125 -17.691406 71.507812 -17.691406 C 71.472656 -17.691406 71.449219 -17.691406 71.4375 -17.6875 C 71.476562 -17.695312 71.527344 -17.707031 71.585938 -17.730469 C 71.75 -17.796875 71.890625 -17.902344 72.015625 -18.050781 C 72.199219 -18.273438 72.292969 -18.527344 72.292969 -18.816406 L 72.292969 -18.601562 L 72.226562 -18.394531 C 70.085938 -11.898438 66.972656 -7.046875 62.878906 -3.839844 C 58.753906 -0.605469 53.421875 1.011719 46.875 1.011719 C 40.753906 1.011719 35.09375 -0.65625 29.890625 -3.992188 C 24.710938 -7.3125 20.601562 -11.835938 17.566406 -17.554688 C 14.53125 -23.265625 13.015625 -29.542969 13.015625 -36.382812 C 13.015625 -43.519531 14.394531 -49.785156 17.15625 -55.1875 C 19.9375 -60.632812 23.878906 -64.832031 28.976562 -67.777344 C 34.050781 -70.710938 39.902344 -72.179688 46.53125 -72.179688 C 52.933594 -72.179688 58.21875 -70.492188 62.382812 -67.113281 C 66.523438 -63.757812 69.507812 -58.765625 71.332031 -52.136719 L 70.027344 -51.777344 L 71.3125 -52.207031 C 71.214844 -52.496094 71.027344 -52.695312 70.753906 -52.800781 C 70.695312 -52.820312 70.644531 -52.835938 70.601562 -52.839844 C 70.605469 -52.839844 70.621094 -52.839844 70.644531 -52.84375 C 70.671875 -52.84375 70.683594 -52.84375 70.683594 -52.847656 C 70.632812 -52.832031 70.574219 -52.804688 70.511719 -52.765625 C 70.195312 -52.566406 70.039062 -52.273438 70.039062 -51.890625 L 71.394531 -51.890625 L 70.046875 -51.757812 L 68.679688 -65.328125 L 70.027344 -65.464844 L 68.691406 -65.242188 C 68.550781 -66.082031 68.453125 -66.585938 68.398438 -66.746094 C 68.429688 -66.660156 68.464844 -66.585938 68.511719 -66.527344 L 68.507812 -66.527344 C 68.421875 -66.601562 68.289062 -66.691406 68.097656 -66.796875 L 68.773438 -67.972656 L 68.15625 -66.765625 C 64.992188 -68.386719 61.835938 -69.523438 58.6875 -70.183594 C 55.507812 -70.847656 51.570312 -71.179688 46.875 -71.179688 Z M 46.875 -71.179688 "/></g></g><g style="fill:#000000;fill-opacity:1;"><g transform="translate(385.874276, 504.98122)"><path style="stroke:none" d="M 41.742188 2.722656 C 34.421875 2.722656 27.898438 1.003906 22.171875 -2.429688 C 16.441406 -5.867188 12.019531 -10.53125 8.898438 -16.414062 C 5.789062 -22.277344 4.234375 -28.667969 4.234375 -35.582031 C 4.234375 -43.703125 6.292969 -50.671875 10.414062 -56.496094 C 14.507812 -62.28125 19.765625 -66.632812 26.183594 -69.546875 C 32.558594 -72.441406 39.074219 -73.890625 45.734375 -73.890625 C 53.214844 -73.890625 59.800781 -72.128906 65.492188 -68.613281 C 71.175781 -65.097656 75.539062 -60.457031 78.582031 -54.691406 C 81.613281 -48.941406 83.128906 -42.839844 83.128906 -36.382812 C 83.128906 -29.203125 81.234375 -22.613281 77.445312 -16.613281 C 73.667969 -10.636719 68.617188 -5.917969 62.292969 -2.460938 C 55.96875 0.996094 49.121094 2.722656 41.742188 2.722656 Z M 41.742188 0.015625 C 48.660156 0.015625 55.074219 -1.601562 60.992188 -4.839844 C 66.910156 -8.070312 71.628906 -12.476562 75.152344 -18.058594 C 78.664062 -23.617188 80.417969 -29.722656 80.417969 -36.382812 C 80.417969 -42.394531 79.007812 -48.074219 76.183594 -53.425781 C 73.371094 -58.761719 69.332031 -63.054688 64.066406 -66.308594 C 58.8125 -69.554688 52.699219 -71.179688 45.734375 -71.179688 C 39.464844 -71.179688 33.324219 -69.816406 27.304688 -67.082031 C 21.332031 -64.371094 16.4375 -60.320312 12.625 -54.929688 C 8.835938 -49.578125 6.941406 -43.128906 6.941406 -35.582031 C 6.941406 -29.117188 8.390625 -23.152344 11.289062 -17.683594 C 14.175781 -12.242188 18.265625 -7.933594 23.5625 -4.753906 C 28.863281 -1.574219 34.921875 0.015625 41.742188 0.015625 Z M 45.734375 -2.378906 C 50.652344 -2.378906 55.074219 -3.570312 59.003906 -5.949219 C 62.921875 -8.320312 66.019531 -11.820312 68.296875 -16.449219 C 70.601562 -21.128906 71.75 -26.707031 71.75 -33.1875 C 71.75 -40.128906 70.464844 -46.285156 67.890625 -51.648438 C 65.339844 -56.96875 61.757812 -61.117188 57.144531 -64.097656 C 52.539062 -67.070312 47.140625 -68.558594 40.945312 -68.558594 C 32.992188 -68.558594 26.792969 -66.011719 22.347656 -60.921875 C 17.855469 -55.78125 15.609375 -48.664062 15.609375 -39.574219 C 15.609375 -32.621094 16.902344 -26.289062 19.480469 -20.574219 C 22.042969 -14.90625 25.617188 -10.449219 30.207031 -7.207031 C 34.761719 -3.988281 39.9375 -2.378906 45.734375 -2.378906 Z M 45.734375 0.328125 C 39.363281 0.328125 33.667969 -1.445312 28.644531 -4.996094 C 23.652344 -8.519531 19.777344 -13.339844 17.011719 -19.457031 C 14.273438 -25.527344 12.902344 -32.234375 12.902344 -39.574219 C 12.902344 -49.339844 15.371094 -57.050781 20.308594 -62.707031 C 25.289062 -68.414062 32.167969 -71.265625 40.945312 -71.265625 C 47.671875 -71.265625 53.5625 -69.636719 58.613281 -66.375 C 63.65625 -63.117188 67.5625 -58.601562 70.335938 -52.820312 C 73.085938 -47.085938 74.460938 -40.539062 74.460938 -33.1875 C 74.460938 -26.289062 73.214844 -20.308594 70.726562 -15.253906 C 68.214844 -10.152344 64.777344 -6.277344 60.40625 -3.632812 C 56.046875 -0.992188 51.15625 0.328125 45.734375 0.328125 Z M 45.734375 0.328125 "/></g></g><g style="fill:#000000;fill-opacity:1;"><g transform="translate(468.556021, 504.98122)"><path style="stroke:none" d="M 63.882812 -58.734375 C 63.882812 -62.117188 63.167969 -64.613281 61.742188 -66.21875 C 60.359375 -67.777344 58.214844 -68.558594 55.3125 -68.558594 C 54.640625 -68.558594 54.152344 -68.863281 53.847656 -69.476562 C 53.695312 -69.78125 53.617188 -70.15625 53.617188 -70.597656 C 53.617188 -71.039062 53.695312 -71.410156 53.847656 -71.714844 C 54.152344 -72.328125 54.640625 -72.636719 55.3125 -72.636719 L 55.328125 -72.636719 L 60.269531 -72.519531 L 60.292969 -72.519531 C 63.003906 -72.367188 65.148438 -72.292969 66.71875 -72.292969 C 67.984375 -72.292969 69.816406 -72.367188 72.222656 -72.519531 L 72.25 -72.519531 L 77.082031 -72.636719 L 77.097656 -72.636719 C 78.152344 -72.636719 78.679688 -71.957031 78.679688 -70.597656 C 78.679688 -69.238281 78.152344 -68.558594 77.097656 -68.558594 C 74.484375 -68.558594 72.554688 -67.792969 71.304688 -66.261719 C 69.984375 -64.648438 69.328125 -62.140625 69.328125 -58.734375 L 69.328125 -26.34375 C 69.328125 -17.230469 66.761719 -10.085938 61.636719 -4.917969 C 56.503906 0.25 49.644531 2.835938 41.058594 2.835938 C 35.210938 2.835938 30.078125 1.683594 25.660156 -0.625 C 21.207031 -2.953125 17.753906 -6.265625 15.304688 -10.5625 C 12.867188 -14.839844 11.648438 -19.832031 11.648438 -25.546875 L 11.648438 -62.042969 C 11.648438 -64.136719 11.457031 -65.632812 11.074219 -66.527344 C 10.78125 -67.210938 10.164062 -67.699219 9.230469 -67.992188 C 8.03125 -68.371094 6.058594 -68.558594 3.308594 -68.558594 C 2.253906 -68.558594 1.726562 -69.238281 1.726562 -70.597656 C 1.726562 -71.957031 2.253906 -72.636719 3.308594 -72.636719 L 8.941406 -72.519531 L 8.960938 -72.519531 C 12.132812 -72.367188 14.695312 -72.292969 16.652344 -72.292969 C 18.757812 -72.292969 21.398438 -72.367188 24.570312 -72.519531 L 24.589844 -72.519531 L 30.082031 -72.632812 C 30.773438 -72.636719 31.269531 -72.328125 31.578125 -71.714844 C 31.730469 -71.410156 31.804688 -71.039062 31.804688 -70.597656 C 31.804688 -70.15625 31.730469 -69.78125 31.578125 -69.476562 C 31.269531 -68.863281 30.78125 -68.558594 30.109375 -68.558594 C 27.441406 -68.558594 25.492188 -68.351562 24.265625 -67.941406 C 23.285156 -67.617188 22.648438 -67.09375 22.351562 -66.371094 C 21.964844 -65.433594 21.769531 -63.917969 21.769531 -61.816406 L 21.769531 -29.539062 C 21.769531 -20.976562 23.695312 -14.445312 27.546875 -9.949219 C 31.34375 -5.511719 36.683594 -3.292969 43.566406 -3.292969 C 50.003906 -3.292969 54.988281 -5.289062 58.519531 -9.28125 C 62.09375 -13.320312 63.882812 -18.96875 63.882812 -26.230469 Z M 66.589844 -58.734375 L 66.589844 -26.230469 C 66.589844 -18.285156 64.578125 -12.035156 60.546875 -7.484375 C 56.476562 -2.882812 50.816406 -0.585938 43.566406 -0.585938 C 35.851562 -0.585938 29.824219 -3.117188 25.488281 -8.1875 C 21.203125 -13.191406 19.058594 -20.308594 19.058594 -29.539062 L 19.058594 -61.816406 C 19.058594 -64.273438 19.324219 -66.140625 19.847656 -67.40625 C 20.460938 -68.890625 21.648438 -69.925781 23.40625 -70.511719 C 24.914062 -71.015625 27.148438 -71.265625 30.109375 -71.265625 C 29.664062 -71.265625 29.347656 -71.074219 29.152344 -70.6875 C 29.121094 -70.625 29.101562 -70.566406 29.09375 -70.519531 C 29.09375 -70.53125 29.097656 -70.558594 29.097656 -70.597656 C 29.097656 -70.636719 29.09375 -70.660156 29.09375 -70.671875 C 29.101562 -70.625 29.121094 -70.566406 29.152344 -70.503906 C 29.347656 -70.117188 29.675781 -69.925781 30.136719 -69.925781 L 24.664062 -69.8125 L 24.632812 -71.167969 L 24.699219 -69.8125 C 21.484375 -69.660156 18.800781 -69.585938 16.652344 -69.585938 C 14.652344 -69.585938 12.046875 -69.660156 8.832031 -69.8125 L 8.894531 -71.167969 L 8.867188 -69.8125 L 3.308594 -69.925781 C 3.644531 -69.925781 3.929688 -70.042969 4.164062 -70.28125 C 4.289062 -70.402344 4.371094 -70.535156 4.421875 -70.679688 C 4.433594 -70.714844 4.4375 -70.738281 4.441406 -70.746094 C 4.4375 -70.710938 4.433594 -70.660156 4.433594 -70.597656 C 4.433594 -70.53125 4.4375 -70.480469 4.441406 -70.445312 C 4.4375 -70.457031 4.433594 -70.476562 4.421875 -70.511719 C 4.371094 -70.65625 4.289062 -70.789062 4.164062 -70.914062 C 3.929688 -71.148438 3.644531 -71.265625 3.308594 -71.265625 C 6.335938 -71.265625 8.582031 -71.035156 10.042969 -70.578125 C 11.769531 -70.035156 12.941406 -69.039062 13.5625 -67.59375 C 14.089844 -66.359375 14.355469 -64.507812 14.355469 -62.042969 L 14.355469 -25.546875 C 14.355469 -20.3125 15.457031 -15.765625 17.65625 -11.90625 C 19.84375 -8.066406 22.929688 -5.105469 26.914062 -3.023438 C 30.9375 -0.921875 35.652344 0.128906 41.058594 0.128906 C 48.894531 0.128906 55.113281 -2.191406 59.710938 -6.828125 C 64.316406 -11.46875 66.617188 -17.972656 66.617188 -26.34375 L 66.617188 -58.734375 C 66.617188 -62.78125 67.480469 -65.863281 69.203125 -67.972656 C 70.996094 -70.167969 73.628906 -71.265625 77.097656 -71.265625 C 76.761719 -71.265625 76.476562 -71.148438 76.238281 -70.914062 C 76.117188 -70.789062 76.03125 -70.65625 75.984375 -70.511719 C 75.972656 -70.476562 75.964844 -70.457031 75.964844 -70.445312 C 75.96875 -70.480469 75.972656 -70.53125 75.972656 -70.597656 C 75.972656 -70.660156 75.96875 -70.710938 75.964844 -70.746094 C 75.964844 -70.738281 75.972656 -70.714844 75.984375 -70.679688 C 76.03125 -70.535156 76.117188 -70.402344 76.238281 -70.28125 C 76.476562 -70.042969 76.761719 -69.925781 77.097656 -69.925781 L 77.097656 -71.28125 L 77.128906 -69.925781 L 72.339844 -69.8125 L 72.308594 -71.167969 L 72.390625 -69.816406 C 69.929688 -69.660156 68.039062 -69.585938 66.71875 -69.585938 C 65.097656 -69.585938 62.90625 -69.660156 60.144531 -69.8125 L 60.21875 -71.167969 L 60.1875 -69.8125 L 55.28125 -69.925781 L 55.3125 -71.28125 L 55.3125 -69.925781 C 55.757812 -69.925781 56.074219 -70.117188 56.269531 -70.503906 C 56.300781 -70.566406 56.320312 -70.625 56.328125 -70.671875 C 56.328125 -70.660156 56.324219 -70.636719 56.324219 -70.597656 C 56.324219 -70.558594 56.328125 -70.53125 56.328125 -70.519531 C 56.320312 -70.566406 56.300781 -70.625 56.269531 -70.6875 C 56.074219 -71.074219 55.757812 -71.265625 55.3125 -71.265625 C 59.027344 -71.265625 61.84375 -70.183594 63.769531 -68.015625 C 65.648438 -65.898438 66.589844 -62.804688 66.589844 -58.734375 Z M 66.589844 -58.734375 "/></g></g><g style="fill:#000000;fill-opacity:1;"><g transform="translate(543.482747, 504.98122)"><path style="stroke:none" d="M 77.894531 -2.722656 C 78.949219 -2.722656 79.476562 -2.042969 79.476562 -0.683594 C 79.476562 0.675781 78.949219 1.355469 77.894531 1.355469 L 63.183594 1.355469 C 61.890625 1.355469 60.222656 0.453125 58.179688 -1.351562 C 56.34375 -2.976562 54.089844 -5.390625 51.421875 -8.601562 C 46.140625 -14.949219 39.875 -23.660156 32.625 -34.726562 L 33.757812 -35.46875 L 34.050781 -34.148438 C 31.902344 -33.667969 29.675781 -33.429688 27.371094 -33.429688 C 26.882812 -33.429688 25.136719 -33.546875 22.136719 -33.777344 L 22.238281 -35.128906 L 23.59375 -35.128906 L 23.59375 -9.238281 C 23.59375 -7.066406 23.785156 -5.535156 24.167969 -4.640625 C 24.457031 -3.96875 25.058594 -3.503906 25.976562 -3.242188 C 27.183594 -2.894531 29.171875 -2.722656 31.933594 -2.722656 C 32.605469 -2.722656 33.09375 -2.417969 33.402344 -1.804688 C 33.554688 -1.5 33.628906 -1.125 33.628906 -0.683594 C 33.628906 -0.242188 33.554688 0.128906 33.402344 0.433594 C 33.09375 1.046875 32.605469 1.355469 31.933594 1.355469 C 29.550781 1.355469 27.664062 1.316406 26.269531 1.238281 L 26.34375 -0.113281 L 26.324219 1.238281 L 18.457031 1.125 L 18.476562 -0.226562 L 18.496094 1.125 L 10.742188 1.238281 L 10.71875 -0.113281 L 10.796875 1.238281 C 9.402344 1.316406 7.4375 1.355469 4.902344 1.355469 C 3.847656 1.355469 3.320312 0.675781 3.320312 -0.683594 C 3.320312 -2.042969 3.847656 -2.722656 4.902344 -2.722656 C 7.671875 -2.722656 9.679688 -2.898438 10.929688 -3.242188 C 11.886719 -3.511719 12.527344 -4 12.847656 -4.71875 C 13.265625 -5.644531 13.472656 -7.148438 13.472656 -9.238281 L 13.472656 -62.042969 C 13.472656 -64.136719 13.28125 -65.632812 12.898438 -66.527344 C 12.605469 -67.210938 11.992188 -67.699219 11.054688 -67.992188 C 9.859375 -68.371094 7.882812 -68.558594 5.132812 -68.558594 C 4.460938 -68.558594 3.972656 -68.863281 3.664062 -69.476562 C 3.511719 -69.78125 3.4375 -70.15625 3.4375 -70.597656 C 3.4375 -71.039062 3.511719 -71.410156 3.664062 -71.714844 C 3.972656 -72.328125 4.460938 -72.636719 5.132812 -72.636719 L 10.765625 -72.519531 L 10.785156 -72.519531 C 13.957031 -72.367188 16.519531 -72.292969 18.476562 -72.292969 C 20.125 -72.292969 21.660156 -72.332031 23.082031 -72.40625 C 24.515625 -72.480469 25.71875 -72.554688 26.699219 -72.632812 C 29.542969 -72.863281 32.125 -72.976562 34.441406 -72.976562 C 40.777344 -72.976562 45.707031 -71.503906 49.226562 -68.554688 C 52.820312 -65.546875 54.617188 -61.550781 54.617188 -56.566406 C 54.617188 -52.171875 53.332031 -48.199219 50.765625 -44.652344 C 48.234375 -41.160156 44.890625 -38.414062 40.730469 -36.414062 L 40.144531 -37.636719 L 41.257812 -38.410156 C 47.621094 -29.242188 52.976562 -22.070312 57.320312 -16.894531 C 61.609375 -11.785156 65.394531 -8.125 68.671875 -5.914062 C 71.828125 -3.785156 74.902344 -2.722656 77.894531 -2.722656 Z M 77.894531 -0.015625 C 74.351562 -0.015625 70.769531 -1.230469 67.160156 -3.667969 C 63.671875 -6.019531 59.699219 -9.847656 55.246094 -15.152344 C 50.847656 -20.394531 45.441406 -27.628906 39.03125 -36.863281 L 38.125 -38.167969 L 39.558594 -38.855469 C 43.304688 -40.660156 46.308594 -43.121094 48.570312 -46.242188 C 50.792969 -49.3125 51.90625 -52.753906 51.90625 -56.566406 C 51.90625 -60.707031 50.433594 -64.011719 47.488281 -66.476562 C 44.46875 -69.003906 40.121094 -70.269531 34.441406 -70.269531 C 32.199219 -70.269531 29.6875 -70.15625 26.90625 -69.929688 C 25.90625 -69.851562 24.679688 -69.777344 23.222656 -69.699219 C 21.753906 -69.621094 20.171875 -69.585938 18.476562 -69.585938 C 16.476562 -69.585938 13.871094 -69.660156 10.65625 -69.8125 L 10.71875 -71.167969 L 10.691406 -69.8125 L 5.132812 -69.925781 C 5.578125 -69.925781 5.894531 -70.117188 6.085938 -70.503906 C 6.121094 -70.566406 6.140625 -70.625 6.148438 -70.671875 C 6.144531 -70.660156 6.144531 -70.636719 6.144531 -70.597656 C 6.144531 -70.558594 6.144531 -70.53125 6.148438 -70.519531 C 6.140625 -70.566406 6.121094 -70.625 6.085938 -70.6875 C 5.894531 -71.074219 5.578125 -71.265625 5.132812 -71.265625 C 8.160156 -71.265625 10.40625 -71.035156 11.867188 -70.578125 C 13.59375 -70.035156 14.765625 -69.039062 15.386719 -67.59375 C 15.917969 -66.359375 16.179688 -64.507812 16.179688 -62.042969 L 16.179688 -9.238281 C 16.179688 -6.765625 15.894531 -4.886719 15.320312 -3.609375 C 14.652344 -2.121094 13.429688 -1.128906 11.652344 -0.632812 C 10.167969 -0.222656 7.917969 -0.015625 4.902344 -0.015625 C 5.238281 -0.015625 5.527344 -0.132812 5.761719 -0.367188 C 5.882812 -0.492188 5.96875 -0.625 6.019531 -0.769531 C 6.027344 -0.804688 6.035156 -0.824219 6.035156 -0.835938 C 6.03125 -0.796875 6.03125 -0.75 6.03125 -0.683594 C 6.03125 -0.621094 6.03125 -0.570312 6.035156 -0.535156 C 6.035156 -0.542969 6.027344 -0.566406 6.019531 -0.597656 C 5.96875 -0.746094 5.882812 -0.878906 5.761719 -1 C 5.527344 -1.238281 5.238281 -1.355469 4.902344 -1.355469 C 7.386719 -1.355469 9.300781 -1.390625 10.644531 -1.464844 L 10.671875 -1.46875 L 18.476562 -1.582031 L 26.394531 -1.46875 L 26.421875 -1.464844 C 27.765625 -1.390625 29.601562 -1.355469 31.933594 -1.355469 C 31.488281 -1.355469 31.171875 -1.160156 30.980469 -0.777344 C 30.945312 -0.710938 30.925781 -0.65625 30.917969 -0.609375 C 30.921875 -0.621094 30.921875 -0.644531 30.921875 -0.683594 C 30.921875 -0.722656 30.921875 -0.75 30.917969 -0.761719 C 30.925781 -0.710938 30.945312 -0.65625 30.980469 -0.59375 C 31.171875 -0.207031 31.488281 -0.015625 31.933594 -0.015625 C 28.917969 -0.015625 26.683594 -0.222656 25.230469 -0.636719 C 23.488281 -1.132812 22.304688 -2.113281 21.679688 -3.570312 C 21.148438 -4.808594 20.886719 -6.695312 20.886719 -9.238281 L 20.886719 -36.589844 L 22.34375 -36.476562 C 25.273438 -36.253906 26.949219 -36.140625 27.371094 -36.140625 C 29.476562 -36.140625 31.507812 -36.355469 33.464844 -36.792969 L 34.378906 -36.996094 L 34.890625 -36.210938 C 42.085938 -25.230469 48.289062 -16.601562 53.503906 -10.332031 C 56.082031 -7.230469 58.238281 -4.914062 59.972656 -3.382812 C 61.503906 -2.03125 62.574219 -1.355469 63.183594 -1.355469 L 77.894531 -1.355469 C 77.558594 -1.355469 77.273438 -1.238281 77.039062 -1 C 76.914062 -0.878906 76.828125 -0.746094 76.78125 -0.597656 C 76.769531 -0.566406 76.765625 -0.542969 76.761719 -0.535156 C 76.765625 -0.570312 76.769531 -0.621094 76.769531 -0.683594 C 76.769531 -0.75 76.765625 -0.796875 76.761719 -0.835938 C 76.765625 -0.824219 76.769531 -0.804688 76.78125 -0.769531 C 76.828125 -0.625 76.914062 -0.492188 77.039062 -0.367188 C 77.273438 -0.132812 77.558594 -0.015625 77.894531 -0.015625 Z M 22.453125 -39.203125 C 24.285156 -38.910156 26.457031 -38.761719 28.96875 -38.761719 C 34.519531 -38.761719 38.4375 -39.921875 40.71875 -42.234375 C 43.007812 -44.558594 44.152344 -48.234375 44.152344 -53.261719 C 44.152344 -58.8125 42.972656 -62.75 40.621094 -65.070312 C 38.261719 -67.394531 34.757812 -68.558594 30.109375 -68.558594 C 27.5 -68.558594 25.753906 -68.148438 24.875 -67.324219 C 24.019531 -66.527344 23.59375 -64.691406 23.59375 -61.816406 L 23.59375 -37.863281 L 22.238281 -37.863281 Z M 20.886719 -36.710938 L 20.886719 -61.816406 C 20.886719 -65.476562 21.597656 -67.972656 23.027344 -69.304688 C 24.425781 -70.613281 26.789062 -71.265625 30.109375 -71.265625 C 35.496094 -71.265625 39.636719 -69.84375 42.523438 -67 C 45.414062 -64.148438 46.859375 -59.570312 46.859375 -53.261719 C 46.859375 -47.492188 45.457031 -43.183594 42.648438 -40.335938 C 39.835938 -37.480469 35.277344 -36.054688 28.96875 -36.054688 C 26.3125 -36.054688 23.996094 -36.210938 22.027344 -36.527344 Z M 20.886719 -36.710938 "/></g></g><g style="fill:#000000;fill-opacity:1;"><g transform="translate(613.505469, 504.98122)"><path style="stroke:none" d="M 17.890625 -57.9375 C 17.890625 -55.242188 18.539062 -52.902344 19.835938 -50.921875 C 21.1875 -48.863281 22.839844 -47.140625 24.789062 -45.753906 C 26.855469 -44.292969 29.695312 -42.464844 33.320312 -40.277344 C 37.382812 -37.824219 40.515625 -35.785156 42.714844 -34.164062 C 45.019531 -32.46875 46.996094 -30.308594 48.648438 -27.695312 C 50.34375 -25.003906 51.195312 -21.816406 51.195312 -18.132812 C 51.195312 -14.230469 50.214844 -10.683594 48.253906 -7.5 C 46.292969 -4.3125 43.425781 -1.804688 39.652344 0.0234375 C 35.929688 1.824219 31.496094 2.722656 26.34375 2.722656 C 20.261719 2.722656 14.683594 1.335938 9.613281 -1.433594 L 9.589844 -1.449219 L 9.566406 -1.460938 C 8.917969 -1.851562 8.480469 -2.347656 8.253906 -2.945312 C 8.105469 -3.347656 7.984375 -3.910156 7.894531 -4.621094 L 7.890625 -4.640625 L 6.40625 -20.171875 L 7.753906 -20.300781 L 6.441406 -19.972656 C 6.285156 -20.589844 6.414062 -21.125 6.820312 -21.578125 C 7.113281 -21.902344 7.515625 -22.109375 8.027344 -22.203125 C 8.515625 -22.292969 8.953125 -22.25 9.335938 -22.070312 C 9.851562 -21.832031 10.179688 -21.429688 10.324219 -20.855469 L 10.332031 -20.824219 C 11.5 -15.5625 13.667969 -11.039062 16.835938 -7.253906 C 19.871094 -3.625 23.914062 -1.8125 28.96875 -1.8125 C 32.453125 -1.8125 35.386719 -2.757812 37.761719 -4.652344 C 40.042969 -6.472656 41.1875 -9.445312 41.1875 -13.570312 C 41.1875 -16.742188 40.492188 -19.472656 39.101562 -21.765625 C 37.671875 -24.125 35.941406 -26.070312 33.914062 -27.601562 C 31.785156 -29.207031 28.882812 -31.097656 25.199219 -33.277344 C 21.5 -35.511719 18.585938 -37.441406 16.457031 -39.070312 C 14.226562 -40.773438 12.34375 -42.914062 10.8125 -45.5 C 9.238281 -48.144531 8.453125 -51.226562 8.453125 -54.742188 C 8.453125 -58.84375 9.550781 -62.367188 11.746094 -65.304688 C 13.910156 -68.203125 16.722656 -70.367188 20.183594 -71.792969 C 23.582031 -73.191406 27.191406 -73.890625 31.019531 -73.890625 C 35.6875 -73.890625 40.308594 -72.941406 44.882812 -71.050781 L 44.363281 -69.796875 L 44.792969 -71.082031 C 46.550781 -70.496094 47.429688 -69.421875 47.429688 -67.859375 L 46.074219 -67.859375 L 47.425781 -67.941406 L 48.230469 -54.785156 L 48.230469 -54.742188 C 48.230469 -54.15625 48.011719 -53.691406 47.578125 -53.34375 C 47.234375 -53.070312 46.8125 -52.933594 46.304688 -52.933594 C 45.839844 -52.933594 45.4375 -53.046875 45.097656 -53.273438 C 44.691406 -53.542969 44.429688 -53.925781 44.304688 -54.414062 L 44.289062 -54.476562 L 44.28125 -54.539062 C 43.707031 -58.257812 42.164062 -61.714844 39.652344 -64.910156 C 37.261719 -67.949219 33.777344 -69.46875 29.195312 -69.46875 C 25.359375 -69.46875 22.527344 -68.394531 20.707031 -66.242188 C 18.832031 -64.023438 17.890625 -61.253906 17.890625 -57.9375 Z M 15.183594 -57.9375 C 15.183594 -61.917969 16.335938 -65.269531 18.640625 -67.992188 C 21 -70.785156 24.519531 -72.179688 29.195312 -72.179688 C 34.652344 -72.179688 38.847656 -70.316406 41.78125 -66.585938 C 44.585938 -63.015625 46.3125 -59.136719 46.957031 -54.949219 L 45.621094 -54.742188 L 46.933594 -55.070312 C 46.886719 -55.257812 46.773438 -55.410156 46.597656 -55.527344 C 46.484375 -55.605469 46.386719 -55.640625 46.304688 -55.640625 C 46.175781 -55.640625 46.039062 -55.582031 45.886719 -55.457031 C 45.640625 -55.265625 45.519531 -55.027344 45.519531 -54.742188 L 46.875 -54.742188 L 45.523438 -54.660156 L 44.722656 -67.816406 L 44.722656 -67.859375 C 44.722656 -68.121094 44.460938 -68.339844 43.9375 -68.511719 L 43.890625 -68.527344 L 43.847656 -68.546875 C 39.601562 -70.300781 35.328125 -71.179688 31.019531 -71.179688 C 27.550781 -71.179688 24.28125 -70.550781 21.214844 -69.285156 C 18.214844 -68.050781 15.78125 -66.183594 13.914062 -63.683594 C 12.082031 -61.226562 11.164062 -58.246094 11.164062 -54.742188 C 11.164062 -51.722656 11.820312 -49.101562 13.140625 -46.882812 C 14.496094 -44.597656 16.148438 -42.710938 18.101562 -41.222656 C 20.152344 -39.65625 22.976562 -37.785156 26.578125 -35.609375 C 30.347656 -33.378906 33.335938 -31.429688 35.542969 -29.765625 C 37.847656 -28.023438 39.808594 -25.828125 41.417969 -23.167969 C 43.070312 -20.445312 43.894531 -17.246094 43.894531 -13.570312 C 43.894531 -8.574219 42.414062 -4.894531 39.449219 -2.535156 C 36.578125 -0.246094 33.085938 0.898438 28.96875 0.898438 C 23.070312 0.898438 18.335938 -1.242188 14.757812 -5.519531 C 11.308594 -9.640625 8.953125 -14.546875 7.6875 -20.234375 L 9.011719 -20.527344 L 7.695312 -20.199219 C 7.761719 -19.933594 7.929688 -19.738281 8.199219 -19.613281 C 8.335938 -19.550781 8.4375 -19.523438 8.511719 -19.539062 C 8.605469 -19.554688 8.710938 -19.632812 8.832031 -19.765625 C 9.070312 -20.027344 9.148438 -20.316406 9.070312 -20.628906 L 9.09375 -20.53125 L 10.585938 -4.917969 L 9.238281 -4.789062 L 10.582031 -4.957031 C 10.644531 -4.457031 10.714844 -4.101562 10.792969 -3.898438 L 10.785156 -3.914062 C 10.824219 -3.875 10.882812 -3.832031 10.960938 -3.785156 L 10.265625 -2.625 L 10.914062 -3.8125 C 15.578125 -1.261719 20.722656 0.015625 26.34375 0.015625 C 31.082031 0.015625 35.121094 -0.796875 38.472656 -2.417969 C 41.769531 -4.011719 44.261719 -6.179688 45.949219 -8.921875 C 47.640625 -11.667969 48.484375 -14.738281 48.484375 -18.132812 C 48.484375 -21.292969 47.773438 -24 46.355469 -26.25 C 44.886719 -28.578125 43.140625 -30.488281 41.109375 -31.984375 C 38.976562 -33.554688 35.910156 -35.546875 31.917969 -37.960938 C 28.238281 -40.179688 25.34375 -42.042969 23.222656 -43.546875 C 20.992188 -45.125 19.109375 -47.089844 17.570312 -49.4375 C 15.980469 -51.871094 15.183594 -54.703125 15.183594 -57.9375 Z M 15.183594 -57.9375 "/></g></g><g style="fill:#000000;fill-opacity:1;"><g transform="translate(664.825028, 504.98122)"><path style="stroke:none" d="M 52.820312 -16.992188 C 52.820312 -17.628906 53.105469 -18.089844 53.679688 -18.375 C 53.949219 -18.507812 54.265625 -18.574219 54.628906 -18.574219 C 55.03125 -18.574219 55.40625 -18.503906 55.757812 -18.363281 C 56.515625 -18.0625 56.894531 -17.527344 56.894531 -16.765625 L 56.894531 -16.667969 L 56.882812 -16.574219 C 56.207031 -11.847656 55.871094 -6.894531 55.871094 -1.710938 C 55.871094 -0.726562 55.605469 0.0273438 55.074219 0.558594 C 54.542969 1.089844 53.75 1.355469 52.691406 1.355469 L 4.902344 1.355469 C 3.847656 1.355469 3.320312 0.675781 3.320312 -0.683594 C 3.320312 -2.042969 3.847656 -2.722656 4.902344 -2.722656 C 7.667969 -2.722656 9.652344 -2.894531 10.863281 -3.242188 C 11.789062 -3.503906 12.414062 -3.996094 12.734375 -4.71875 C 13.148438 -5.644531 13.359375 -7.148438 13.359375 -9.238281 L 13.359375 -62.042969 C 13.359375 -64.125 13.152344 -65.605469 12.742188 -66.492188 C 12.417969 -67.191406 11.777344 -67.695312 10.828125 -67.992188 C 9.628906 -68.371094 7.65625 -68.558594 4.902344 -68.558594 C 3.847656 -68.558594 3.320312 -69.238281 3.320312 -70.597656 C 3.320312 -71.957031 3.847656 -72.636719 4.902344 -72.636719 L 50.75 -72.636719 C 51.46875 -72.636719 52.042969 -72.417969 52.480469 -71.980469 C 52.914062 -71.546875 53.132812 -70.96875 53.132812 -70.253906 L 53.359375 -56.25 C 53.359375 -55.648438 53.121094 -55.183594 52.640625 -54.847656 C 52.351562 -54.644531 51.996094 -54.523438 51.570312 -54.480469 C 51.152344 -54.4375 50.785156 -54.484375 50.457031 -54.621094 C 49.964844 -54.824219 49.636719 -55.179688 49.46875 -55.683594 L 49.410156 -55.855469 L 49.398438 -56.035156 C 49.191406 -59.726562 48.101562 -62.570312 46.136719 -64.570312 C 44.195312 -66.542969 41.589844 -67.53125 38.320312 -67.53125 L 31.363281 -67.53125 C 28.847656 -67.53125 27.035156 -67.34375 25.917969 -66.972656 C 25.027344 -66.675781 24.414062 -66.1875 24.085938 -65.503906 C 23.683594 -64.664062 23.480469 -63.320312 23.480469 -61.472656 L 23.480469 -38.320312 L 22.125 -38.320312 L 22.125 -39.675781 L 36.039062 -39.675781 C 39.378906 -39.675781 41.703125 -40.1875 43.019531 -41.214844 C 44.230469 -42.160156 44.835938 -43.855469 44.835938 -46.304688 C 44.835938 -47.359375 45.515625 -47.886719 46.875 -47.886719 C 48.234375 -47.886719 48.914062 -47.359375 48.914062 -46.304688 L 48.796875 -37.050781 C 48.796875 -34.886719 48.835938 -33.25 48.910156 -32.136719 L 48.910156 -32.105469 L 49.027344 -26.601562 C 49.027344 -25.527344 48.347656 -24.992188 46.988281 -24.992188 C 45.628906 -24.992188 44.949219 -25.519531 44.949219 -26.574219 C 44.949219 -29.511719 44.285156 -31.570312 42.953125 -32.742188 C 41.578125 -33.960938 39.15625 -34.570312 35.699219 -34.570312 L 22.125 -34.570312 L 22.125 -35.925781 L 23.480469 -35.925781 L 23.480469 -9.695312 C 23.480469 -7.761719 23.667969 -6.394531 24.039062 -5.585938 C 24.328125 -4.960938 24.890625 -4.519531 25.722656 -4.257812 C 26.808594 -3.917969 28.574219 -3.75 31.019531 -3.75 L 40.144531 -3.75 C 43.40625 -3.75 46.117188 -4.898438 48.28125 -7.199219 C 50.535156 -9.59375 52.054688 -12.9375 52.839844 -17.238281 L 54.171875 -16.992188 Z M 55.527344 -16.992188 L 55.527344 -16.871094 L 55.503906 -16.75 C 54.621094 -11.925781 52.871094 -8.125 50.253906 -5.34375 C 47.554688 -2.476562 44.183594 -1.039062 40.144531 -1.039062 L 31.019531 -1.039062 C 28.296875 -1.039062 26.261719 -1.25 24.914062 -1.671875 C 23.316406 -2.171875 22.203125 -3.097656 21.578125 -4.449219 C 21.039062 -5.617188 20.769531 -7.367188 20.769531 -9.695312 L 20.769531 -37.28125 L 35.699219 -37.28125 C 39.839844 -37.28125 42.859375 -36.445312 44.75 -34.773438 C 46.6875 -33.058594 47.660156 -30.324219 47.660156 -26.574219 C 47.660156 -26.910156 47.539062 -27.195312 47.304688 -27.429688 C 47.183594 -27.554688 47.046875 -27.640625 46.902344 -27.6875 C 46.871094 -27.699219 46.847656 -27.703125 46.839844 -27.707031 C 46.875 -27.703125 46.925781 -27.699219 46.988281 -27.699219 C 47.050781 -27.699219 47.101562 -27.703125 47.136719 -27.707031 C 47.128906 -27.703125 47.105469 -27.699219 47.074219 -27.6875 C 46.929688 -27.640625 46.792969 -27.554688 46.671875 -27.429688 C 46.4375 -27.195312 46.316406 -26.898438 46.320312 -26.546875 L 46.203125 -32.019531 L 47.558594 -32.046875 L 46.207031 -31.957031 C 46.128906 -33.128906 46.089844 -34.835938 46.089844 -37.082031 L 46.203125 -46.304688 C 46.203125 -45.96875 46.320312 -45.683594 46.558594 -45.445312 C 46.679688 -45.324219 46.8125 -45.238281 46.960938 -45.191406 C 46.992188 -45.179688 47.015625 -45.171875 47.023438 -45.171875 C 46.988281 -45.175781 46.9375 -45.175781 46.875 -45.175781 C 46.808594 -45.175781 46.761719 -45.175781 46.722656 -45.171875 C 46.734375 -45.171875 46.753906 -45.179688 46.789062 -45.191406 C 46.933594 -45.238281 47.066406 -45.324219 47.191406 -45.445312 C 47.425781 -45.683594 47.542969 -45.96875 47.542969 -46.304688 C 47.542969 -42.972656 46.589844 -40.566406 44.683594 -39.078125 C 42.882812 -37.667969 40 -36.964844 36.039062 -36.964844 L 20.769531 -36.964844 L 20.769531 -61.472656 C 20.769531 -63.730469 21.0625 -65.46875 21.648438 -66.679688 C 22.304688 -68.050781 23.445312 -69.003906 25.0625 -69.542969 C 26.457031 -70.007812 28.554688 -70.238281 31.363281 -70.238281 L 38.320312 -70.238281 C 42.347656 -70.238281 45.597656 -68.984375 48.066406 -66.46875 C 50.511719 -63.984375 51.855469 -60.558594 52.105469 -56.1875 L 50.75 -56.113281 L 52.035156 -56.539062 C 51.945312 -56.816406 51.765625 -57.007812 51.5 -57.121094 C 51.429688 -57.148438 51.367188 -57.167969 51.304688 -57.171875 L 51.300781 -57.175781 L 51.296875 -57.171875 C 51.226562 -57.148438 51.160156 -57.113281 51.085938 -57.066406 C 50.796875 -56.863281 50.652344 -56.574219 50.652344 -56.203125 L 50.425781 -70.253906 L 50.429688 -70.273438 C 50.453125 -70.199219 50.5 -70.132812 50.5625 -70.066406 C 50.628906 -70 50.699219 -69.957031 50.773438 -69.929688 L 50.75 -69.925781 L 4.902344 -69.925781 C 5.238281 -69.925781 5.527344 -70.042969 5.761719 -70.28125 C 5.882812 -70.402344 5.96875 -70.535156 6.019531 -70.679688 C 6.027344 -70.714844 6.035156 -70.738281 6.035156 -70.746094 C 6.03125 -70.710938 6.03125 -70.660156 6.03125 -70.597656 C 6.03125 -70.53125 6.03125 -70.480469 6.035156 -70.445312 C 6.035156 -70.457031 6.027344 -70.476562 6.019531 -70.511719 C 5.96875 -70.65625 5.882812 -70.789062 5.761719 -70.914062 C 5.527344 -71.148438 5.238281 -71.265625 4.902344 -71.265625 C 7.933594 -71.265625 10.175781 -71.035156 11.640625 -70.578125 C 13.351562 -70.039062 14.539062 -69.058594 15.199219 -67.632812 C 15.777344 -66.386719 16.066406 -64.523438 16.066406 -62.042969 L 16.066406 -9.238281 C 16.066406 -6.765625 15.78125 -4.886719 15.207031 -3.609375 C 14.539062 -2.121094 13.339844 -1.132812 11.605469 -0.636719 C 10.152344 -0.222656 7.917969 -0.015625 4.902344 -0.015625 C 5.238281 -0.015625 5.527344 -0.132812 5.761719 -0.367188 C 5.882812 -0.492188 5.96875 -0.625 6.019531 -0.769531 C 6.027344 -0.804688 6.035156 -0.824219 6.035156 -0.835938 C 6.03125 -0.796875 6.03125 -0.75 6.03125 -0.683594 C 6.03125 -0.621094 6.03125 -0.570312 6.035156 -0.535156 C 6.035156 -0.542969 6.027344 -0.566406 6.019531 -0.597656 C 5.96875 -0.746094 5.882812 -0.878906 5.761719 -1 C 5.527344 -1.238281 5.238281 -1.355469 4.902344 -1.355469 L 52.691406 -1.355469 C 52.910156 -1.355469 53.078125 -1.371094 53.195312 -1.402344 C 53.21875 -1.410156 53.230469 -1.414062 53.234375 -1.417969 C 53.210938 -1.402344 53.1875 -1.382812 53.160156 -1.355469 C 53.136719 -1.335938 53.125 -1.316406 53.113281 -1.300781 C 53.113281 -1.300781 53.117188 -1.308594 53.121094 -1.320312 C 53.148438 -1.410156 53.160156 -1.539062 53.160156 -1.710938 C 53.160156 -7.019531 53.507812 -12.101562 54.199219 -16.957031 L 55.542969 -16.765625 L 54.1875 -16.765625 C 54.1875 -16.515625 54.269531 -16.292969 54.429688 -16.097656 C 54.527344 -15.980469 54.636719 -15.898438 54.753906 -15.851562 C 54.726562 -15.859375 54.683594 -15.867188 54.628906 -15.867188 C 54.691406 -15.867188 54.777344 -15.894531 54.894531 -15.953125 C 55.316406 -16.164062 55.527344 -16.511719 55.527344 -16.992188 Z M 55.527344 -16.992188 "/></g></g><g style="fill:#000000;fill-opacity:1;"><g transform="translate(721.397686, 504.98122)"><path style="stroke:none" d=""/></g></g><g style="fill:#b0db9c;fill-opacity:1;"><g transform="translate(312.316079, 504.98122)"><path style="stroke:none" d="M 46.875 -72.53125 C 51.664062 -72.53125 55.691406 -72.1875 58.953125 -71.5 C 62.222656 -70.820312 65.492188 -69.644531 68.765625 -67.96875 C 69.296875 -67.664062 69.597656 -67.398438 69.671875 -67.171875 C 69.753906 -66.941406 69.875 -66.375 70.03125 -65.46875 L 71.390625 -51.890625 C 71.390625 -51.660156 71.179688 -51.523438 70.765625 -51.484375 C 70.347656 -51.453125 70.101562 -51.550781 70.03125 -51.78125 C 66.53125 -64.476562 58.695312 -70.828125 46.53125 -70.828125 C 40.144531 -70.828125 34.519531 -69.421875 29.65625 -66.609375 C 24.789062 -63.796875 21.023438 -59.785156 18.359375 -54.578125 C 15.703125 -49.367188 14.375 -43.300781 14.375 -36.375 C 14.375 -29.757812 15.835938 -23.695312 18.765625 -18.1875 C 21.691406 -12.675781 25.644531 -8.320312 30.625 -5.125 C 35.601562 -1.9375 41.019531 -0.34375 46.875 -0.34375 C 53.101562 -0.34375 58.15625 -1.863281 62.03125 -4.90625 C 65.914062 -7.945312 68.882812 -12.582031 70.9375 -18.8125 C 70.9375 -18.96875 71.125 -19.046875 71.5 -19.046875 C 72.039062 -19.046875 72.3125 -18.929688 72.3125 -18.703125 L 71.171875 -6.15625 C 71.085938 -5.25 70.96875 -4.679688 70.8125 -4.453125 C 70.664062 -4.222656 70.363281 -3.957031 69.90625 -3.65625 C 65.957031 -1.75 62.253906 -0.414062 58.796875 0.34375 C 55.335938 1.101562 51.363281 1.484375 46.875 1.484375 C 38.882812 1.484375 31.753906 -0.09375 25.484375 -3.25 C 19.210938 -6.40625 14.328125 -10.832031 10.828125 -16.53125 C 7.335938 -22.238281 5.59375 -28.78125 5.59375 -36.15625 C 5.59375 -43.300781 7.378906 -49.628906 10.953125 -55.140625 C 14.523438 -60.648438 19.445312 -64.925781 25.71875 -67.96875 C 31.988281 -71.007812 39.039062 -72.53125 46.875 -72.53125 Z M 46.875 -72.53125 "/></g></g><g style="fill:#b0db9c;fill-opacity:1;"><g transform="translate(385.874276, 504.98122)"><path style="stroke:none" d="M 41.734375 1.375 C 34.671875 1.375 28.378906 -0.273438 22.859375 -3.578125 C 17.347656 -6.890625 13.09375 -11.378906 10.09375 -17.046875 C 7.09375 -22.710938 5.59375 -28.890625 5.59375 -35.578125 C 5.59375 -43.410156 7.566406 -50.117188 11.515625 -55.703125 C 15.472656 -61.296875 20.546875 -65.5 26.734375 -68.3125 C 32.929688 -71.125 39.265625 -72.53125 45.734375 -72.53125 C 52.953125 -72.53125 59.296875 -70.835938 64.765625 -67.453125 C 70.242188 -64.078125 74.445312 -59.613281 77.375 -54.0625 C 80.300781 -48.507812 81.765625 -42.613281 81.765625 -36.375 C 81.765625 -29.457031 79.941406 -23.109375 76.296875 -17.328125 C 72.648438 -11.554688 67.765625 -6.992188 61.640625 -3.640625 C 55.523438 -0.296875 48.890625 1.375 41.734375 1.375 Z M 45.734375 -1.03125 C 50.898438 -1.03125 55.554688 -2.28125 59.703125 -4.78125 C 63.847656 -7.289062 67.117188 -10.976562 69.515625 -15.84375 C 71.910156 -20.71875 73.109375 -26.5 73.109375 -33.1875 C 73.109375 -40.332031 71.773438 -46.679688 69.109375 -52.234375 C 66.453125 -57.785156 62.707031 -62.117188 57.875 -65.234375 C 53.050781 -68.347656 47.40625 -69.90625 40.9375 -69.90625 C 32.570312 -69.90625 26.03125 -67.207031 21.3125 -61.8125 C 16.601562 -56.414062 14.25 -49.003906 14.25 -39.578125 C 14.25 -32.429688 15.578125 -25.910156 18.234375 -20.015625 C 20.898438 -14.117188 24.628906 -9.476562 29.421875 -6.09375 C 34.210938 -2.71875 39.648438 -1.03125 45.734375 -1.03125 Z M 45.734375 -1.03125 "/></g></g><g style="fill:#b0db9c;fill-opacity:1;"><g transform="translate(468.556021, 504.98122)"><path style="stroke:none" d="M 65.234375 -58.734375 C 65.234375 -66.179688 61.925781 -69.90625 55.3125 -69.90625 C 55.082031 -69.90625 54.96875 -70.132812 54.96875 -70.59375 C 54.96875 -71.050781 55.082031 -71.28125 55.3125 -71.28125 L 60.21875 -71.171875 C 62.957031 -71.015625 65.125 -70.9375 66.71875 -70.9375 C 68.007812 -70.9375 69.875 -71.015625 72.3125 -71.171875 L 77.09375 -71.28125 C 77.25 -71.28125 77.328125 -71.050781 77.328125 -70.59375 C 77.328125 -70.132812 77.25 -69.90625 77.09375 -69.90625 C 71.007812 -69.90625 67.96875 -66.179688 67.96875 -58.734375 L 67.96875 -26.34375 C 67.96875 -17.601562 65.535156 -10.78125 60.671875 -5.875 C 55.804688 -0.96875 49.269531 1.484375 41.0625 1.484375 C 35.4375 1.484375 30.507812 0.382812 26.28125 -1.8125 C 22.0625 -4.019531 18.789062 -7.15625 16.46875 -11.21875 C 14.15625 -15.289062 13 -20.066406 13 -25.546875 L 13 -62.046875 C 13 -64.328125 12.769531 -66 12.3125 -67.0625 C 11.851562 -68.125 10.957031 -68.863281 9.625 -69.28125 C 8.300781 -69.695312 6.195312 -69.90625 3.3125 -69.90625 C 3.15625 -69.90625 3.078125 -70.132812 3.078125 -70.59375 C 3.078125 -71.050781 3.15625 -71.28125 3.3125 -71.28125 L 8.890625 -71.171875 C 12.085938 -71.015625 14.675781 -70.9375 16.65625 -70.9375 C 18.78125 -70.9375 21.441406 -71.015625 24.640625 -71.171875 L 30.109375 -71.28125 C 30.335938 -71.28125 30.453125 -71.050781 30.453125 -70.59375 C 30.453125 -70.132812 30.335938 -69.90625 30.109375 -69.90625 C 27.296875 -69.90625 25.203125 -69.675781 23.828125 -69.21875 C 22.460938 -68.769531 21.550781 -67.992188 21.09375 -66.890625 C 20.644531 -65.785156 20.421875 -64.09375 20.421875 -61.8125 L 20.421875 -29.53125 C 20.421875 -20.632812 22.453125 -13.8125 26.515625 -9.0625 C 30.585938 -4.3125 36.269531 -1.9375 43.5625 -1.9375 C 50.40625 -1.9375 55.726562 -4.082031 59.53125 -8.375 C 63.332031 -12.675781 65.234375 -18.628906 65.234375 -26.234375 Z M 65.234375 -58.734375 "/></g></g><g style="fill:#b0db9c;fill-opacity:1;"><g transform="translate(543.482747, 504.98122)"><path style="stroke:none" d="M 77.890625 -1.375 C 78.046875 -1.375 78.125 -1.144531 78.125 -0.6875 C 78.125 -0.226562 78.046875 0 77.890625 0 L 63.1875 0 C 61.28125 0 57.703125 -3.15625 52.453125 -9.46875 C 47.210938 -15.78125 40.984375 -24.445312 33.765625 -35.46875 C 31.703125 -35.007812 29.570312 -34.78125 27.375 -34.78125 C 26.914062 -34.78125 25.203125 -34.894531 22.234375 -35.125 L 22.234375 -9.234375 C 22.234375 -6.878906 22.460938 -5.171875 22.921875 -4.109375 C 23.378906 -3.046875 24.269531 -2.320312 25.59375 -1.9375 C 26.925781 -1.5625 29.039062 -1.375 31.9375 -1.375 C 32.164062 -1.375 32.28125 -1.144531 32.28125 -0.6875 C 32.28125 -0.226562 32.164062 0 31.9375 0 C 29.570312 0 27.707031 -0.0351562 26.34375 -0.109375 L 18.46875 -0.234375 L 10.71875 -0.109375 C 9.351562 -0.0351562 7.414062 0 4.90625 0 C 4.75 0 4.671875 -0.226562 4.671875 -0.6875 C 4.671875 -1.144531 4.75 -1.375 4.90625 -1.375 C 7.789062 -1.375 9.914062 -1.5625 11.28125 -1.9375 C 12.65625 -2.320312 13.585938 -3.0625 14.078125 -4.15625 C 14.578125 -5.257812 14.828125 -6.953125 14.828125 -9.234375 L 14.828125 -62.046875 C 14.828125 -64.328125 14.597656 -66 14.140625 -67.0625 C 13.679688 -68.125 12.785156 -68.863281 11.453125 -69.28125 C 10.128906 -69.695312 8.019531 -69.90625 5.125 -69.90625 C 4.90625 -69.90625 4.796875 -70.132812 4.796875 -70.59375 C 4.796875 -71.050781 4.90625 -71.28125 5.125 -71.28125 L 10.71875 -71.171875 C 13.914062 -71.015625 16.5 -70.9375 18.46875 -70.9375 C 20.144531 -70.9375 21.703125 -70.972656 23.140625 -71.046875 C 24.585938 -71.128906 25.804688 -71.207031 26.796875 -71.28125 C 29.609375 -71.507812 32.15625 -71.625 34.4375 -71.625 C 40.445312 -71.625 45.085938 -70.253906 48.359375 -67.515625 C 51.628906 -64.773438 53.265625 -61.125 53.265625 -56.5625 C 53.265625 -52.457031 52.066406 -48.75 49.671875 -45.4375 C 47.273438 -42.132812 44.097656 -39.535156 40.140625 -37.640625 C 46.523438 -28.429688 51.90625 -21.222656 56.28125 -16.015625 C 60.65625 -10.816406 64.53125 -7.078125 67.90625 -4.796875 C 71.289062 -2.515625 74.617188 -1.375 77.890625 -1.375 Z M 22.234375 -37.859375 C 24.140625 -37.554688 26.382812 -37.40625 28.96875 -37.40625 C 34.894531 -37.40625 39.128906 -38.695312 41.671875 -41.28125 C 44.222656 -43.863281 45.5 -47.859375 45.5 -53.265625 C 45.5 -59.191406 44.1875 -63.445312 41.5625 -66.03125 C 38.945312 -68.613281 35.128906 -69.90625 30.109375 -69.90625 C 27.140625 -69.90625 25.082031 -69.375 23.9375 -68.3125 C 22.800781 -67.25 22.234375 -65.082031 22.234375 -61.8125 Z M 22.234375 -37.859375 "/></g></g><g style="fill:#b0db9c;fill-opacity:1;"><g transform="translate(613.505469, 504.98122)"><path style="stroke:none" d="M 16.53125 -57.9375 C 16.53125 -54.96875 17.253906 -52.378906 18.703125 -50.171875 C 20.148438 -47.972656 21.914062 -46.128906 24 -44.640625 C 26.09375 -43.160156 28.96875 -41.320312 32.625 -39.125 C 36.644531 -36.6875 39.738281 -34.664062 41.90625 -33.0625 C 44.070312 -31.46875 45.9375 -29.4375 47.5 -26.96875 C 49.0625 -24.5 49.84375 -21.554688 49.84375 -18.140625 C 49.84375 -14.484375 48.925781 -11.171875 47.09375 -8.203125 C 45.269531 -5.242188 42.59375 -2.90625 39.0625 -1.1875 C 35.53125 0.519531 31.289062 1.375 26.34375 1.375 C 20.488281 1.375 15.128906 0.0390625 10.265625 -2.625 C 9.878906 -2.851562 9.628906 -3.117188 9.515625 -3.421875 C 9.410156 -3.722656 9.316406 -4.179688 9.234375 -4.796875 L 7.75 -20.296875 C 7.675781 -20.597656 7.847656 -20.785156 8.265625 -20.859375 C 8.679688 -20.941406 8.929688 -20.832031 9.015625 -20.53125 C 10.222656 -15.050781 12.476562 -10.332031 15.78125 -6.375 C 19.09375 -2.425781 23.488281 -0.453125 28.96875 -0.453125 C 32.769531 -0.453125 35.984375 -1.5 38.609375 -3.59375 C 41.234375 -5.6875 42.546875 -9.015625 42.546875 -13.578125 C 42.546875 -16.992188 41.785156 -19.957031 40.265625 -22.46875 C 38.742188 -24.976562 36.898438 -27.050781 34.734375 -28.6875 C 32.566406 -30.320312 29.617188 -32.238281 25.890625 -34.4375 C 22.242188 -36.644531 19.375 -38.546875 17.28125 -40.140625 C 15.1875 -41.742188 13.414062 -43.757812 11.96875 -46.1875 C 10.53125 -48.625 9.8125 -51.476562 9.8125 -54.75 C 9.8125 -58.539062 10.816406 -61.785156 12.828125 -64.484375 C 14.847656 -67.191406 17.472656 -69.207031 20.703125 -70.53125 C 23.929688 -71.863281 27.367188 -72.53125 31.015625 -72.53125 C 35.503906 -72.53125 39.953125 -71.617188 44.359375 -69.796875 C 45.503906 -69.410156 46.078125 -68.765625 46.078125 -67.859375 L 46.875 -54.75 C 46.875 -54.4375 46.679688 -54.28125 46.296875 -54.28125 C 45.921875 -54.28125 45.695312 -54.4375 45.625 -54.75 C 45.007812 -58.695312 43.367188 -62.363281 40.703125 -65.75 C 38.046875 -69.132812 34.210938 -70.828125 29.203125 -70.828125 C 24.941406 -70.828125 21.765625 -69.585938 19.671875 -67.109375 C 17.578125 -64.640625 16.53125 -61.582031 16.53125 -57.9375 Z M 16.53125 -57.9375 "/></g></g><g style="fill:#b0db9c;fill-opacity:1;"><g transform="translate(664.825028, 504.98122)"><path style="stroke:none" d="M 54.171875 -17 C 54.171875 -17.144531 54.320312 -17.21875 54.625 -17.21875 C 54.851562 -17.21875 55.0625 -17.179688 55.25 -17.109375 C 55.445312 -17.035156 55.546875 -16.921875 55.546875 -16.765625 C 54.859375 -11.972656 54.515625 -6.953125 54.515625 -1.703125 C 54.515625 -1.097656 54.378906 -0.660156 54.109375 -0.390625 C 53.847656 -0.128906 53.375 0 52.6875 0 L 4.90625 0 C 4.75 0 4.671875 -0.226562 4.671875 -0.6875 C 4.671875 -1.144531 4.75 -1.375 4.90625 -1.375 C 7.789062 -1.375 9.898438 -1.5625 11.234375 -1.9375 C 12.566406 -2.320312 13.476562 -3.0625 13.96875 -4.15625 C 14.46875 -5.257812 14.71875 -6.953125 14.71875 -9.234375 L 14.71875 -62.046875 C 14.71875 -64.328125 14.46875 -66 13.96875 -67.0625 C 13.476562 -68.125 12.566406 -68.863281 11.234375 -69.28125 C 9.898438 -69.695312 7.789062 -69.90625 4.90625 -69.90625 C 4.75 -69.90625 4.671875 -70.132812 4.671875 -70.59375 C 4.671875 -71.050781 4.75 -71.28125 4.90625 -71.28125 L 50.75 -71.28125 C 51.4375 -71.28125 51.78125 -70.9375 51.78125 -70.25 L 52 -56.21875 C 52 -56 51.804688 -55.867188 51.421875 -55.828125 C 51.046875 -55.785156 50.820312 -55.878906 50.75 -56.109375 C 50.519531 -60.140625 49.300781 -63.273438 47.09375 -65.515625 C 44.894531 -67.765625 41.96875 -68.890625 38.3125 -68.890625 L 31.359375 -68.890625 C 28.703125 -68.890625 26.742188 -68.675781 25.484375 -68.25 C 24.234375 -67.832031 23.359375 -67.109375 22.859375 -66.078125 C 22.367188 -65.054688 22.125 -63.519531 22.125 -61.46875 L 22.125 -38.3125 L 36.03125 -38.3125 C 39.6875 -38.3125 42.289062 -38.921875 43.84375 -40.140625 C 45.40625 -41.359375 46.1875 -43.410156 46.1875 -46.296875 C 46.1875 -46.453125 46.414062 -46.53125 46.875 -46.53125 C 47.332031 -46.53125 47.5625 -46.453125 47.5625 -46.296875 L 47.4375 -37.0625 C 47.4375 -34.863281 47.476562 -33.191406 47.5625 -32.046875 L 47.671875 -26.578125 C 47.671875 -26.421875 47.441406 -26.34375 46.984375 -26.34375 C 46.523438 -26.34375 46.296875 -26.421875 46.296875 -26.578125 C 46.296875 -29.921875 45.476562 -32.3125 43.84375 -33.75 C 42.21875 -35.195312 39.503906 -35.921875 35.703125 -35.921875 L 22.125 -35.921875 L 22.125 -9.6875 C 22.125 -7.5625 22.351562 -6.003906 22.8125 -5.015625 C 23.269531 -4.023438 24.101562 -3.335938 25.3125 -2.953125 C 26.53125 -2.578125 28.429688 -2.390625 31.015625 -2.390625 L 40.140625 -2.390625 C 43.796875 -2.390625 46.835938 -3.679688 49.265625 -6.265625 C 51.703125 -8.859375 53.335938 -12.4375 54.171875 -17 Z M 54.171875 -17 "/></g></g><g style="fill:#b0db9c;fill-opacity:1;"><g transform="translate(721.397686, 504.98122)"><path style="stroke:none" d=""/></g></g></g></svg>